<svg xmlns="http://www.w3.org/2000/svg" viewBox="0 0 40 26"><path fill="#fff" d="M0 0h39.95v26H0z"></path><path d="M12.07 19.86h3.4v-5.69h-3.4v5.7zm3.66-8.53a1.92 1.92 0 11-3.84-.04 1.92 1.92 0 013.84.04zm5.94-6.42c2.07-.1 4.1.56 5.7 1.87 1.54 1.38 2.32 3.47 2.32 6.22 0 5.44-2.62 8.09-8.02 8.09H10.95V4.9zm.24-1.24H9.7v18.66h12.2c2.26.1 4.47-.62 6.26-2C30 18.77 30.92 16.3 30.92 13c.02-1.44-.23-2.86-.73-4.21a7.67 7.67 0 00-2-2.94 9.45 9.45 0 00-6.28-2.17z"></path><path fill="#cb1b69" fill-rule="evenodd" d="M17.04 19.87h4.13c3.58 0 7.38-1.08 7.41-6.65h-2.36V9.83h.82v2.66h1.52c-.31-4.76-3.96-6.07-7.39-6.07h-4.13V9.8h.43c.22 0 .43.02.64.07.2.06.38.17.52.32.15.16.26.35.33.55.08.26.11.53.1.8 0 .24-.03.49-.1.72s-.2.44-.36.61c-.14.13-.31.23-.5.28-.2.05-.4.08-.6.07h-.46zm2.58-6.65V9.8h2.55v.73h-1.73v.54h1.6v.72h-1.6v.7h1.79v.73zm2.8 0l1.31-3.42h.8l1.37 3.42H25l-.28-.74h-1.16l-.27.74zm2.15-1.37l-.44-1.2-.43 1.2zm-7.53.64h.38c.12 0 .25 0 .37-.03a.51.51 0 00.22-.11.6.6 0 00.15-.27c.05-.19.07-.38.06-.57 0-.19-.01-.37-.06-.55a.66.66 0 00-.16-.27.53.53 0 00-.26-.13 2.73 2.73 0 00-.51-.03h-.19z"></path></svg>