<svg width="2010" height="308" viewBox="0 0 2010 308" fill="none" xmlns="http://www.w3.org/2000/svg">
<path d="M1585.41 136.775C1582.13 142.502 1577.55 147.374 1572.03 150.997C1564.86 155.648 1556.47 158.042 1547.92 157.866C1537.42 158.28 1527.1 154.996 1518.76 148.586C1511.15 142.49 1505.84 133.991 1503.69 124.481H1620.48V112.429C1620.58 102.369 1618.74 92.3839 1615.06 83.0209C1611.53 74.2749 1606.28 66.3249 1599.63 59.6389C1592.97 52.9229 1585.02 47.6339 1576.25 44.0919C1566.88 39.8439 1556.76 37.4689 1546.48 37.1009C1536.62 37.0419 1526.86 38.9519 1517.75 42.7189C1508.64 46.4859 1500.38 52.0339 1493.45 59.0369C1486.57 65.8899 1481.19 74.0989 1477.66 83.1419C1473.81 92.5039 1471.88 102.546 1471.99 112.67C1471.91 122.662 1473.8 132.572 1477.54 141.837C1480.99 150.836 1486.24 159.037 1492.97 165.942C1499.81 172.832 1508.02 178.211 1517.07 181.73C1526.91 185.68 1537.44 187.646 1548.05 187.515C1562.4 187.98 1576.59 184.298 1588.9 176.909C1599.81 169.948 1608.77 160.325 1614.94 148.948L1585.41 136.775ZM1520.69 74.9459C1528.1 69.3099 1537.17 66.2999 1546.48 66.3889C1555.69 66.0379 1564.78 68.6579 1572.39 73.8609C1579.7 79.1429 1584.77 86.9669 1586.61 95.7969H1505.38C1508.08 87.2379 1513.44 79.7649 1520.69 74.4639V74.9459Z" fill="#1F2226"/>
<path d="M1992.22 162.156C1990.61 164.97 1988.36 167.363 1985.65 169.142C1982.13 171.427 1978 172.603 1973.81 172.517C1968.64 172.72 1963.57 171.107 1959.48 167.958C1955.74 164.964 1953.13 160.789 1952.08 156.118H2009.45V150.197C2009.49 145.256 2008.59 140.351 2006.78 135.752C2005.05 131.456 2002.47 127.551 1999.2 124.267C1995.93 120.968 1992.03 118.369 1987.72 116.63C1983.11 114.543 1978.15 113.376 1973.1 113.196C1968.26 113.167 1963.46 114.105 1958.98 115.955C1954.51 117.806 1950.45 120.531 1947.05 123.971C1943.67 127.337 1941.03 131.369 1939.29 135.811C1937.4 140.41 1936.45 145.343 1936.51 150.316C1936.47 155.224 1937.39 160.092 1939.23 164.643C1940.93 169.063 1943.51 173.092 1946.81 176.483C1950.17 179.868 1954.2 182.51 1958.65 184.239C1963.49 186.179 1968.66 187.145 1973.87 187.081C1980.92 187.309 1987.88 185.5 1993.94 181.871C1999.29 178.451 2003.69 173.725 2006.72 168.136L1992.22 162.156ZM1960.43 131.785C1964.07 129.017 1968.52 127.538 1973.1 127.582C1977.62 127.41 1982.08 128.697 1985.82 131.253C1989.42 133.847 1991.91 137.69 1992.81 142.027H1952.91C1954.24 137.824 1956.87 134.153 1960.43 131.549V131.785Z" fill="#1F2226"/>
<path d="M1023.37 6.09961V61.7816C1028.32 55.5086 1034.63 50.4396 1041.81 46.9576C1052.8 41.9216 1065.04 40.2636 1076.97 42.1956C1088.9 44.1266 1099.99 49.5596 1108.83 57.8046C1119.59 70.4566 1125.03 86.7846 1124.01 103.363V189.297H1089.9V106.979C1090.29 97.5726 1087.4 88.3246 1081.71 80.8246C1078.67 77.5006 1074.93 74.8986 1070.76 73.2086C1066.59 71.5196 1062.1 70.7856 1057.6 71.0616C1053.1 71.0396 1048.64 71.8996 1044.47 73.5936C1040.38 75.3176 1036.72 77.9086 1033.74 81.1866C1030.56 84.6916 1028.11 88.7866 1026.51 93.2386C1024.75 98.6866 1023.89 104.387 1023.98 110.112V189.297H989.989V6.09961H1023.37Z" fill="#1F2226"/>
<path d="M1666.38 39.8836V59.4696C1671.32 53.1966 1677.63 48.1276 1684.82 44.6456C1695.8 39.6096 1708.04 37.9516 1719.97 39.8836C1731.9 41.8146 1742.99 47.2476 1751.83 55.4926C1762.59 68.1446 1768.03 84.4726 1767.01 101.051V186.985H1732.9V104.667C1733.3 95.2606 1730.4 86.0126 1724.71 78.5126C1721.68 75.1886 1717.94 72.5866 1713.76 70.8966C1709.59 69.2076 1705.1 68.4736 1700.6 68.7496C1696.1 68.7276 1691.64 69.5876 1687.47 71.2816C1683.38 73.0056 1679.72 75.5966 1676.74 78.8736C1673.56 82.3796 1671.11 86.4746 1669.51 90.9266C1667.75 96.3746 1666.89 102.075 1666.98 107.8V186.985H1632.99V39.8836H1666.38Z" fill="#1F2226"/>
<path d="M836.748 189.201V169.615C831.802 175.888 825.497 180.956 818.307 184.439C807.32 189.475 795.084 191.132 783.153 189.201C771.222 187.27 760.134 181.837 751.296 173.592C740.535 160.94 735.092 144.612 736.11 128.034V42.0996H770.218V124.418C769.827 133.823 772.725 143.071 778.414 150.572C781.448 153.896 785.187 156.498 789.359 158.187C793.53 159.877 798.027 160.61 802.519 160.334C807.021 160.357 811.484 159.497 815.656 157.803C819.739 156.079 823.399 153.488 826.382 150.21C829.558 146.704 832.015 142.61 833.614 138.158C835.375 132.71 836.23 127.009 836.145 121.284V42.0996H870.133V189.201H836.748Z" fill="#1F2226"/>
<path d="M719.259 42.2446H685.874V60.3226C680.452 53.7076 673.615 48.3946 665.867 44.7756C657.582 40.8726 648.508 38.9346 639.352 39.1106C630.221 39.0946 621.174 40.8546 612.716 44.2936C604.161 47.6396 596.371 52.6826 589.816 59.1176C582.946 66.0006 577.535 74.1996 573.907 83.2226C569.824 93.1566 567.814 103.82 568.001 114.559C567.851 125.447 569.986 136.246 574.268 146.257C578.124 155.305 583.736 163.498 590.78 170.362C597.382 176.709 605.161 181.703 613.68 185.066C621.941 188.288 630.725 189.963 639.593 190.007C648.994 189.915 658.257 187.733 666.71 183.619C674.632 179.841 681.534 174.221 686.838 167.228C686.838 219.777 667.313 227.49 629.107 228.213C629.107 237.976 629.107 251.113 629.107 258.947C639.231 258.947 645.86 258.947 657.069 258.947C693.225 258.103 719.259 219.053 719.138 186.633L719.259 42.2446ZM684.789 131.553C682.614 136.813 679.557 141.664 675.75 145.895C671.95 150.045 667.306 153.332 662.131 155.537C656.677 157.844 650.817 159.033 644.896 159.033C638.975 159.033 633.114 157.844 627.661 155.537C622.365 153.285 617.577 149.99 613.581 145.849C609.584 141.708 606.462 136.805 604.4 131.432C602.221 126.071 601.076 120.346 601.025 114.559C600.954 108.565 602.102 102.62 604.4 97.0826C606.438 91.7676 609.604 86.9566 613.68 82.9816C617.679 78.9616 622.429 75.7676 627.661 73.5806C633.114 71.2736 638.975 70.0846 644.896 70.0846C650.817 70.0846 656.677 71.2736 662.131 73.5806C667.299 75.7436 671.943 78.9906 675.75 83.1016C683.566 91.7076 687.867 102.934 687.802 114.559C687.852 120.361 686.831 126.122 684.789 131.553Z" fill="#1F2226"/>
<path d="M911.948 42.5996V8.09961H945.228V42.5996H973.753V75.8466H945.228V129.332C945.075 134.51 945.474 139.689 946.416 144.783C947.137 148.678 948.268 151.178 949.982 153.103C952.768 155.178 954.268 155.887 958.302 156.668C963.39 157.654 968.574 158.053 973.753 157.857V188.759H968.999C959.842 188.609 950.707 187.815 941.662 186.382C934.865 185.174 928.624 181.845 923.834 176.873C919.089 171.915 915.799 165.748 914.325 159.045C911.948 149.536 911.948 140.029 911.948 130.52V75.8466H886.989V42.5996H911.948Z" fill="#1F2226"/>
<path fill-rule="evenodd" clip-rule="evenodd" d="M1340.27 166.934C1346.21 172.876 1352.16 178.817 1360.47 182.382C1369.4 186.449 1378.76 187.453 1389 187.137C1397.76 186.866 1406.06 185.671 1413.96 182.382C1422.28 178.817 1430.76 174.366 1436.54 168.12C1442.48 160.988 1448.43 152.668 1451.99 144.349C1460.31 124.175 1460.31 101.529 1451.99 81.3556C1448.7 72.3656 1443.42 64.2386 1436.54 57.5846C1429.76 51.7386 1422.15 46.9326 1413.96 43.3226L1413.96 43.3216C1405.64 40.9446 1397.32 38.5676 1387.81 38.5676C1378.79 38.8336 1369.91 40.8526 1361.66 44.5106C1353.79 47.9746 1346.86 53.2726 1341.46 59.9616V4.09961H1306.99V185.948H1340.27V166.931L1340.27 166.934ZM1382.76 158.866C1407.34 158.866 1427.26 138.271 1427.26 112.866C1427.26 87.4606 1407.34 66.8656 1382.76 66.8656C1358.18 66.8656 1338.26 87.4606 1338.26 112.866C1338.26 138.271 1358.18 158.866 1382.76 158.866Z" fill="#1F2226"/>
<path fill-rule="evenodd" clip-rule="evenodd" d="M1903.93 177.086C1901.01 180.004 1898.1 182.923 1894.01 184.674C1889.63 186.672 1885.03 187.165 1880 187.01C1875.69 186.877 1871.62 186.29 1867.74 184.674C1863.65 182.923 1859.48 180.737 1856.64 177.668C1853.73 174.165 1850.81 170.078 1849.05 165.992C1844.97 156.082 1844.97 144.958 1849.05 135.049C1850.67 130.633 1853.26 126.641 1856.64 123.372C1859.97 120.501 1863.71 118.14 1867.74 116.367V116.366C1871.82 115.199 1875.91 114.031 1880.58 114.031C1885.01 114.162 1889.37 115.153 1893.43 116.95C1897.29 118.652 1900.7 121.254 1903.35 124.54V97.0996H1920.28V186.426H1903.93V177.084V177.086ZM1883.06 173.123C1870.99 173.123 1861.2 163.006 1861.2 150.527C1861.2 138.048 1870.99 127.931 1883.06 127.931C1895.13 127.931 1904.92 138.048 1904.92 150.527C1904.92 163.006 1895.13 173.123 1883.06 173.123Z" fill="#1F2226"/>
<path d="M1809.49 187.1C1817.5 187.1 1823.99 180.608 1823.99 172.6C1823.99 164.591 1817.5 158.1 1809.49 158.1C1801.48 158.1 1794.99 164.591 1794.99 172.6C1794.99 180.608 1801.48 187.1 1809.49 187.1Z" fill="#1F2226"/>
<path d="M1211.72 38.101C1220.85 38.04 1229.89 39.93 1238.23 43.646C1245.96 46.972 1252.81 52.0473 1258.24 58.4702V41.7173H1291.62V186.346H1258.24V167.424C1252.86 174.275 1245.92 179.731 1237.99 183.332C1229.61 187.228 1220.47 189.205 1211.23 189.118C1202.39 189.095 1193.64 187.376 1185.44 184.056C1176.91 180.725 1169.12 175.726 1162.54 169.352C1155.54 162.502 1150.01 154.301 1146.27 145.247C1142.01 135.4 1139.87 124.762 1140 114.032C1139.8 103.073 1141.9 92.1941 1146.15 82.0932C1149.77 73.0373 1155.23 64.8297 1162.18 57.9878C1168.76 51.5608 1176.6 46.5557 1185.2 43.2837C1193.63 39.9057 1202.63 38.1481 1211.72 38.101ZM1216.49 69.0991C1191.91 69.0991 1171.99 89.4703 1171.99 114.599C1171.99 139.728 1191.91 160.099 1216.49 160.099C1241.07 160.099 1260.99 139.728 1260.99 114.599C1260.99 89.4705 1241.07 69.0993 1216.49 69.0991Z" fill="#1F2226"/>
<path d="M219.606 250.1C203.257 250.1 187.069 246.866 171.965 240.585C156.86 234.302 143.136 225.095 131.575 213.488C120.015 201.881 110.845 188.1 104.589 172.935C98.3325 157.769 95.1123 141.515 95.1123 125.1C95.1123 108.684 98.3325 92.4298 104.589 77.2641C110.845 62.0984 120.015 48.3186 131.575 36.7112C143.136 25.1039 156.86 15.8965 171.965 9.61465C187.069 3.33282 203.257 0.0996094 219.606 0.0996094V250.1Z" fill="#FFBA00"/>
<path d="M376.487 250.1C445.802 250.1 501.996 194.135 501.996 125.099C501.996 56.064 445.802 0.0996094 376.487 0.0996094C307.173 0.0996094 250.983 56.064 250.983 125.099C250.983 194.135 307.173 250.1 376.487 250.1Z" fill="#FFBA00"/>
<path d="M63.7364 233.906V17.3066C44.6585 28.2758 28.8148 44.06 17.7991 63.0714C6.78258 82.0827 0.983398 103.651 0.983398 125.606C0.983398 147.562 6.78258 169.13 17.7991 188.141C28.8148 207.153 44.6585 222.937 63.7364 233.906Z" fill="#FFBA00"/>
<path d="M1078.28 225.141V233.333C1080.81 227.868 1085.44 225.141 1092.18 225.141C1094.15 225.141 1095.93 225.364 1097.5 225.803C1099.08 226.242 1100.48 226.81 1101.72 227.498L1096.99 239.546C1096.07 238.918 1095.03 238.401 1093.9 237.988C1092.75 237.584 1091.29 237.377 1089.49 237.377C1085.85 237.377 1083.08 238.427 1081.2 240.535C1079.32 242.635 1078.37 246.077 1078.37 250.844V280.214H1065.87V225.141H1078.28Z" fill="#1F2226"/>
<path d="M1180.4 279.087C1176.97 277.581 1173.99 275.541 1171.46 272.969C1168.93 270.396 1166.94 267.367 1165.48 263.881C1164.03 260.396 1163.3 256.679 1163.3 252.729C1163.3 248.779 1164.03 244.959 1165.48 241.474C1166.93 237.988 1168.93 234.942 1171.46 232.343C1173.99 229.736 1176.97 227.697 1180.4 226.225C1183.83 224.754 1187.52 224.014 1191.47 224.014C1194.5 224.014 1197.35 224.435 1200.04 225.287C1202.72 226.131 1205.18 227.309 1207.4 228.815C1209.63 230.321 1211.57 232.111 1213.24 234.185C1214.91 236.259 1216.26 238.548 1217.31 241.061L1206.1 245.862C1204.86 242.85 1202.97 240.45 1200.4 238.66C1197.83 236.87 1194.89 235.975 1191.55 235.975C1189.27 235.975 1187.15 236.414 1185.21 237.291C1183.27 238.169 1181.57 239.365 1180.11 240.871C1178.66 242.377 1177.54 244.15 1176.73 246.189C1175.93 248.229 1175.53 250.406 1175.53 252.729C1175.53 255.053 1175.93 257.135 1176.73 259.174C1177.54 261.214 1178.66 262.987 1180.11 264.492C1181.56 265.998 1183.28 267.194 1185.25 268.072C1187.22 268.95 1189.36 269.389 1191.64 269.389C1195.17 269.389 1198.17 268.434 1200.68 266.515C1203.19 264.604 1205.05 262.135 1206.28 259.123L1217.5 264.019C1216.45 266.532 1215.08 268.855 1213.41 270.989C1211.75 273.123 1209.82 274.956 1207.62 276.497C1205.43 278.037 1202.97 279.225 1200.26 280.076C1197.54 280.928 1194.61 281.35 1191.46 281.35C1187.5 281.35 1183.81 280.593 1180.39 279.087" fill="#1F2226"/>
<path d="M1234.35 210.547V231.733C1236.21 229.349 1238.5 227.465 1241.26 226.079C1244 224.702 1247.11 224.005 1250.56 224.005C1257.29 224.005 1262.56 226.079 1266.35 230.218C1270.16 234.357 1272.05 240.132 1272.05 247.541V280.206H1259.27V248.952C1259.27 244.623 1258.25 241.216 1256.21 238.737C1254.17 236.259 1251.11 235.02 1247.04 235.02C1245.31 235.02 1243.68 235.347 1242.13 236.01C1240.59 236.672 1239.24 237.627 1238.1 238.884C1236.95 240.14 1236.06 241.706 1235.41 243.591C1234.76 245.475 1234.44 247.609 1234.44 249.993V280.214H1221.84V210.547H1234.35H1234.35Z" fill="#1F2226"/>
<path d="M1295.07 279.415C1291.89 278.132 1289.03 276.257 1286.5 273.813C1283.97 271.36 1281.93 268.366 1280.39 264.82C1278.85 261.275 1278.08 257.239 1278.08 252.721C1278.08 248.204 1278.83 244.073 1280.34 240.528C1281.86 236.982 1283.87 233.988 1286.36 231.535C1288.86 229.083 1291.73 227.216 1294.98 225.933C1298.22 224.651 1301.54 224.006 1304.93 224.006C1308.52 224.006 1311.82 224.694 1314.85 226.08C1317.87 227.457 1320.38 229.341 1322.35 231.733V225.142H1334.86V280.215H1322.35V273.064C1320.38 275.637 1317.85 277.659 1314.76 279.139C1311.67 280.611 1308.33 281.351 1304.75 281.351C1301.47 281.351 1298.25 280.705 1295.07 279.423M1313.28 268.357C1315.25 267.479 1316.95 266.257 1318.37 264.683C1319.8 263.116 1320.92 261.292 1321.75 259.218C1322.58 257.144 1323 254.916 1323 252.532C1323 250.148 1322.59 248.014 1321.75 245.94C1320.92 243.867 1319.79 242.068 1318.37 240.528C1316.95 238.987 1315.26 237.783 1313.28 236.905C1311.29 236.027 1309.13 235.588 1306.79 235.588C1304.44 235.588 1302.36 236.027 1300.35 236.905C1298.35 237.783 1296.6 238.979 1295.12 240.485C1293.64 241.991 1292.48 243.781 1291.65 245.854C1290.82 247.928 1290.4 250.157 1290.4 252.541C1290.4 254.924 1290.81 257.17 1291.65 259.27C1292.48 261.37 1293.64 263.194 1295.12 264.734C1296.6 266.275 1298.35 267.479 1300.35 268.357C1302.36 269.235 1304.51 269.674 1306.79 269.674C1309.07 269.674 1311.3 269.235 1313.28 268.357Z" fill="#1F2226"/>
<path d="M1354.04 225.141V233.333C1356.58 227.868 1361.21 225.141 1367.94 225.141C1369.92 225.141 1371.69 225.364 1373.27 225.803C1374.84 226.242 1376.25 226.81 1377.48 227.498L1372.76 239.546C1371.83 238.918 1370.79 238.401 1369.65 237.988C1368.51 237.584 1367.04 237.377 1365.25 237.377C1361.61 237.377 1358.84 238.427 1356.96 240.535C1355.08 242.635 1354.13 246.077 1354.13 250.844V280.214H1341.62V225.141H1354.04H1354.04Z" fill="#1F2226"/>
<path d="M1434.12 225.141H1421.62L1421.65 232.111C1419.66 229.607 1417.15 227.628 1414.12 226.174C1411.08 224.711 1407.77 223.997 1404.19 224.014C1400.8 224.031 1397.48 224.694 1394.24 225.993C1391.01 227.301 1388.15 229.177 1385.66 231.638C1383.17 234.099 1381.18 237.111 1379.68 240.665C1378.18 244.219 1377.45 248.289 1377.47 252.867C1377.49 257.385 1378.29 261.412 1379.85 264.949C1381.41 268.486 1383.46 271.472 1386.01 273.907C1388.56 276.342 1391.42 278.192 1394.61 279.466C1397.79 280.739 1401.02 281.359 1404.29 281.342C1407.93 281.324 1411.3 280.55 1414.38 279.027C1417.46 277.504 1419.98 275.421 1421.94 272.771L1421.97 272.797C1422.07 292.795 1414.68 295.927 1400.36 296.005C1400.37 299.697 1400.4 304.722 1400.41 307.708C1404.17 307.691 1406.69 307.803 1410.9 307.708C1424.53 307.398 1434.18 292.52 1434.11 280.223V225.141H1434.12ZM1421.22 259.218C1420.39 261.292 1419.26 263.107 1417.84 264.673C1416.42 266.24 1414.73 267.47 1412.74 268.348C1410.76 269.226 1408.6 269.664 1406.26 269.664C1403.91 269.664 1401.83 269.226 1399.82 268.348C1397.82 267.47 1396.07 266.257 1394.59 264.725C1393.11 263.185 1391.95 261.369 1391.12 259.269C1390.28 257.17 1389.86 254.924 1389.86 252.54C1389.86 250.157 1390.28 247.928 1391.12 245.854C1391.96 243.78 1393.11 241.999 1394.59 240.484C1396.07 238.978 1397.82 237.782 1399.82 236.905C1401.83 236.027 1403.97 235.588 1406.26 235.588C1408.54 235.588 1410.76 236.027 1412.74 236.905C1414.72 237.782 1416.42 238.996 1417.84 240.527C1419.26 242.068 1420.39 243.866 1421.22 245.94C1422.05 248.014 1422.47 250.208 1422.47 252.532C1422.47 254.855 1422.06 257.144 1421.22 259.218Z" fill="#1F2226"/>
<path d="M1457.22 278.692C1453.74 277.229 1450.75 275.224 1448.27 272.669C1445.78 270.121 1443.85 267.11 1442.47 263.659C1441.09 260.2 1440.41 256.517 1440.41 252.593C1440.41 248.669 1441.13 244.874 1442.57 241.389C1444.01 237.904 1445.98 234.883 1448.49 232.327C1451.01 229.772 1453.96 227.749 1457.36 226.261C1460.76 224.763 1464.42 224.023 1468.34 224.023C1472.26 224.023 1476.01 224.72 1479.42 226.123C1482.82 227.526 1485.74 229.488 1488.19 232.009C1490.64 234.53 1492.55 237.499 1493.93 240.924C1495.31 244.349 1496 248.084 1496 252.128V256.887H1452.25C1453.11 260.75 1454.98 263.857 1457.86 266.223C1460.74 268.59 1464.39 269.769 1468.8 269.769C1472.29 269.769 1475.32 268.899 1477.89 267.153C1480.47 265.406 1482.4 263.074 1483.69 260.148L1493.89 266.129C1491.56 270.552 1488.3 274.114 1484.1 276.825C1479.9 279.535 1474.8 280.886 1468.8 280.886C1464.57 280.886 1460.71 280.155 1457.22 278.692M1458.64 238.213C1455.91 240.27 1454 242.981 1452.9 246.337H1483.41C1482.48 242.662 1480.71 239.874 1478.08 237.981C1475.45 236.079 1472.2 235.133 1468.34 235.133C1464.49 235.133 1461.37 236.157 1458.65 238.213" fill="#1F2226"/>
<path d="M1119 278.692C1115.51 277.229 1112.52 275.224 1110.04 272.669C1107.56 270.121 1105.63 267.11 1104.25 263.659C1102.87 260.2 1102.19 256.517 1102.19 252.593C1102.19 248.669 1102.9 244.874 1104.34 241.389C1105.78 237.904 1107.76 234.883 1110.27 232.327C1112.79 229.772 1115.74 227.749 1119.14 226.261C1122.54 224.763 1126.2 224.023 1130.12 224.023C1134.04 224.023 1137.79 224.72 1141.2 226.123C1144.6 227.526 1147.52 229.488 1149.97 232.009C1152.42 234.53 1154.33 237.499 1155.71 240.924C1157.09 244.349 1157.78 248.084 1157.78 252.128V256.887H1114.03C1114.89 260.75 1116.76 263.857 1119.64 266.223C1122.52 268.59 1126.17 269.769 1130.58 269.769C1134.07 269.769 1137.1 268.899 1139.67 267.153C1142.25 265.406 1144.18 263.074 1145.46 260.148L1155.67 266.129C1153.34 270.552 1150.08 274.114 1145.88 276.825C1141.68 279.535 1136.58 280.886 1130.58 280.886C1126.35 280.886 1122.49 280.155 1118.99 278.692M1120.42 238.213C1117.69 240.27 1115.78 242.981 1114.67 246.337H1145.18C1144.26 242.662 1142.49 239.874 1139.86 237.981C1137.22 236.079 1133.97 235.133 1130.12 235.133C1126.27 235.133 1123.15 236.157 1120.42 238.213" fill="#1F2226"/>
<path d="M1025.4 227.855V281.631H1017.68V272.419C1013.65 279.213 1005.25 282.783 997.416 282.783C982.101 282.783 969.895 271.613 969.895 254.57C969.895 237.528 982.101 226.703 997.416 226.703C1005.25 226.703 1013.65 229.927 1017.68 236.721V227.855H1025.4ZM977.61 254.57C977.61 266.546 986.246 275.067 997.416 275.067C1008.47 275.067 1017.68 267.928 1017.68 254.57C1017.68 241.212 1007.09 234.418 997.416 234.418C986.246 234.418 977.61 242.249 977.61 254.57Z" fill="#1F2226"/>
<path d="M1976.06 307.656H1968.11L1978.82 281.517L1956.71 227.855H1964.77L1982.97 271.614L2001.28 227.855H2009.45L1976.06 307.656Z" fill="#1F2226"/>
<path d="M1907.79 252.267V281.631H1900.08V227.855H1907.79V236.721C1911.13 229.697 1919.42 226.703 1925.64 226.703C1938.88 226.703 1946.48 235.57 1946.37 250.309V281.631H1938.65V250.309C1938.65 240.291 1933.93 234.303 1925.64 234.303C1917.12 234.303 1907.79 239.14 1907.79 252.267Z" fill="#1F2226"/>
<path d="M1881.39 227.855V281.631H1873.67V272.419C1869.64 279.213 1861.23 282.783 1853.4 282.783C1838.09 282.783 1825.88 271.613 1825.88 254.57C1825.88 237.528 1838.09 226.703 1853.4 226.703C1861.23 226.703 1869.64 229.927 1873.67 236.721V227.855H1881.39ZM1833.6 254.57C1833.6 266.546 1842.23 275.067 1853.4 275.067C1864.46 275.067 1873.67 267.928 1873.67 254.57C1873.67 241.212 1863.08 234.418 1853.4 234.418C1842.23 234.418 1833.6 242.249 1833.6 254.57Z" fill="#1F2226"/>
<path d="M1759.06 307.656V227.855H1766.77V237.182C1770.8 230.388 1779.21 226.703 1787.04 226.703C1802.36 226.703 1814.56 237.988 1814.56 255.031C1814.56 272.073 1802.36 282.783 1787.04 282.783C1779.1 282.783 1770.8 279.789 1766.77 272.879V307.656H1759.06ZM1806.85 255.031C1806.85 243.055 1798.21 234.418 1787.04 234.418C1775.99 234.418 1766.77 241.788 1766.77 255.031C1766.77 268.273 1777.37 275.067 1787.04 275.067C1798.21 275.067 1806.85 267.467 1806.85 255.031Z" fill="#1F2226"/>
<path d="M1702.57 252.267V281.631H1694.85V250.309C1694.85 240.291 1690.13 234.303 1681.84 234.303C1673.32 234.303 1663.99 239.14 1663.99 252.267V281.631H1656.28V227.855H1663.99V236.721C1667.33 229.697 1676.89 226.703 1681.84 226.703C1691.05 226.703 1697.38 230.964 1700.49 238.449C1705.45 228.315 1715 226.703 1720.42 226.703C1733.66 226.703 1741.26 235.57 1741.14 250.309V281.631H1733.43V250.309C1733.43 240.291 1728.71 234.303 1720.42 234.303C1711.89 234.303 1702.57 239.14 1702.57 252.267Z" fill="#1F2226"/>
<path d="M1613.22 282.783C1597.9 282.783 1585.12 271.613 1585.12 254.57C1585.12 237.528 1597.9 226.703 1613.22 226.703C1628.53 226.703 1641.31 237.528 1641.31 254.57C1641.31 271.613 1628.53 282.783 1613.22 282.783ZM1613.22 275.183C1624.39 275.183 1633.71 267.007 1633.71 254.57C1633.71 242.134 1624.39 234.303 1613.22 234.303C1602.05 234.303 1592.72 242.134 1592.72 254.57C1592.72 267.007 1602.05 275.183 1613.22 275.183Z" fill="#1F2226"/>
<path d="M1570.81 270.001L1576.34 275.413C1571.27 280.134 1564.36 282.783 1556.88 282.783C1541.56 282.783 1528.78 271.613 1528.78 254.57C1528.78 237.528 1541.56 226.703 1556.88 226.703C1564.36 226.703 1571.16 229.352 1576.22 233.958L1570.81 239.37C1567.13 236.146 1562.29 234.303 1556.88 234.303C1545.71 234.303 1536.38 242.134 1536.38 254.57C1536.38 267.007 1545.71 275.183 1556.88 275.183C1562.29 275.183 1567.01 273.455 1570.81 270.001Z" fill="#1F2226"/>
</svg>
