<svg width="295" height="158" viewBox="0 0 295 158" fill="none" xmlns="http://www.w3.org/2000/svg">
<mask id="mask0_356_5928" style="mask-type:luminance" maskUnits="userSpaceOnUse" x="0" y="0" width="295" height="158">
<path d="M295 0H0V158H295V0Z" fill="white"/>
</mask>
<g mask="url(#mask0_356_5928)">
<path d="M0 8C0 3.58172 3.58172 0 8 0H376C380.418 0 384 3.58172 384 8V479C384 483.418 380.418 487 376 487H7.99999C3.58171 487 0 483.418 0 479V8Z" fill="#F3F6F7"/>
<path d="M115.915 120.725H6.53884C4.52532 120.725 2.89301 122.357 2.89301 124.37V150.621C2.89301 152.635 4.52532 154.267 6.53884 154.267H115.915C117.929 154.267 119.561 152.635 119.561 150.621V124.37C119.561 122.357 117.929 120.725 115.915 120.725Z" fill="white"/>
<path d="M115.915 120H6.53873C4.13238 120 2.1637 121.969 2.1637 124.375V150.626C2.1637 153.031 4.13238 155 6.53873 155H115.915C118.321 155 120.29 153.031 120.29 150.626V124.375C120.29 121.969 118.321 120 115.915 120ZM119.561 150.626C119.561 152.636 117.925 154.271 115.915 154.271H6.53873C4.52859 154.271 2.89289 152.636 2.89289 150.626V124.375C2.89289 122.365 4.52859 120.729 6.53873 120.729H115.915C117.925 120.729 119.561 122.365 119.561 124.375V150.626Z" fill="black"/>
<path d="M22.9505 131.854C22.7213 131.904 22.4827 131.898 22.2555 131.842C22.1695 131.82 22.0834 131.798 22.0159 131.777C21.8355 131.723 20.1748 131.055 19.7569 130.999C19.3389 130.941 18.5754 130.811 17.5163 131.136C16.4574 131.461 13.7917 132.714 13.4173 136.633C13.3736 137.108 13.2513 139.35 14.1018 141.712C14.9524 144.075 15.8671 145.307 17.2436 146.871C18.2092 147.909 19.4126 147.95 20.2766 147.6C21.1416 147.249 21.9527 146.846 22.8945 146.879C23.159 146.879 23.9275 146.902 24.5997 147.239C25.2719 147.575 26.2282 147.883 26.9201 147.743C27.6119 147.603 28.4687 147.239 29.5568 145.682C30.0256 145.011 31.0306 143.55 31.5607 141.854C31.4268 141.799 29.6729 141.061 28.9136 139.188C28.8171 138.976 27.4531 135.479 30.9549 133.074C30.7817 132.843 30.0899 131.755 28.4624 131.171C26.8339 130.586 25.499 130.926 24.692 131.229C24.0241 131.48 23.4878 131.737 22.9525 131.854H22.9505Z" fill="black"/>
<path d="M22.4298 130.628C22.4153 129.982 22.3147 128.953 23.4744 127.317C23.7627 126.899 25.0883 125.588 26.9035 125.466C26.9253 125.725 27.057 126.593 26.4854 127.858C25.914 129.121 25.0302 129.801 24.6558 130.004C24.2813 130.206 23.7284 130.626 22.4298 130.628Z" fill="black"/>
<path d="M40.316 132.034V125.923H42.0688C44.2066 125.923 45.2916 126.927 45.2916 128.906C45.2916 129.842 44.9887 130.605 44.3923 131.177C43.7969 131.746 42.994 132.034 42.0046 132.034H40.316ZM42.0118 131.126C42.7328 131.126 43.298 130.933 43.6922 130.554C44.0853 130.175 44.2844 129.626 44.2844 128.922C44.2844 127.515 43.5541 126.831 42.0522 126.831H41.2889V131.126H42.0118Z" fill="black"/>
<path d="M48.1561 132.133C47.5027 132.133 46.9727 131.922 46.5785 131.504C46.1875 131.091 45.9884 130.537 45.9884 129.861C45.9884 129.126 46.1948 128.542 46.6023 128.123C47.011 127.702 47.566 127.491 48.2538 127.491C48.9414 127.491 49.4372 127.699 49.8127 128.111C50.1839 128.518 50.3718 129.086 50.3718 129.796C50.3718 130.506 50.1695 131.063 49.7701 131.49C49.3687 131.916 48.8252 132.133 48.1561 132.133ZM48.205 128.342C47.819 128.342 47.5235 128.468 47.3015 128.727C47.0775 128.989 46.9634 129.362 46.9634 129.836C46.9634 130.309 47.0785 130.649 47.3046 130.904C47.5297 131.159 47.8243 131.281 48.206 131.281C48.5876 131.281 48.8823 131.162 49.0856 130.916C49.294 130.665 49.3989 130.297 49.3989 129.819C49.3989 129.343 49.293 128.964 49.0845 128.711C48.8802 128.464 48.5929 128.342 48.205 128.342Z" fill="black"/>
<path d="M54.9167 132.035L54.0838 129.14L53.1815 132.035H52.3008L50.9545 127.588H51.9596L52.7925 130.612L53.7219 127.588H54.5496L55.3793 130.609L56.1935 127.588H57.1582L55.8254 132.035H54.9167Z" fill="black"/>
<path d="M60.9556 132.035V129.52C60.9556 128.464 60.4878 128.342 60.1353 128.342C59.8438 128.342 59.6093 128.449 59.4195 128.668C59.2235 128.893 59.1291 129.171 59.1291 129.52V132.035H58.1718V127.588H59.1291V128.007C59.4486 127.664 59.8614 127.491 60.3635 127.491C60.8654 127.491 61.2503 127.657 61.5189 127.985C61.7803 128.305 61.913 128.762 61.913 129.35V132.036L60.9556 132.035Z" fill="black"/>
<path d="M64.4169 125.589H63.4595V132.034H64.4169V125.589Z" fill="black"/>
<path d="M67.7206 132.133C67.0671 132.133 66.5369 131.922 66.1428 131.504C65.7519 131.091 65.5527 130.537 65.5527 129.861C65.5527 129.126 65.7591 128.542 66.1668 128.123C66.5753 127.702 67.1303 127.491 67.818 127.491C68.5056 127.491 69.0015 127.699 69.377 128.111C69.7483 128.518 69.9371 129.084 69.9371 129.796C69.9371 130.507 69.7348 131.063 69.3355 131.49C68.934 131.916 68.3895 132.133 67.7206 132.133ZM67.7692 128.342C67.3835 128.342 67.0868 128.468 66.8658 128.727C66.6418 128.989 66.5277 129.362 66.5277 129.836C66.5277 130.309 66.6428 130.649 66.8689 130.904C67.094 131.159 67.3886 131.281 67.7703 131.281C68.1521 131.281 68.4465 131.162 68.6509 130.916C68.8583 130.665 68.9642 130.297 68.9642 129.819C68.9642 129.343 68.8583 128.964 68.6499 128.711C68.4455 128.464 68.1572 128.342 67.7692 128.342Z" fill="black"/>
<path d="M72.1597 132.133C71.7096 132.133 71.3486 132.01 71.0883 131.764C70.8248 131.517 70.691 131.19 70.691 130.785C70.691 130.196 70.9514 129.458 72.1888 129.286L73.3059 129.128C73.2654 128.427 72.8879 128.342 72.5986 128.342C72.1297 128.342 71.7169 128.498 71.3372 128.82L71.0977 129.023V127.945L71.165 127.904C71.5955 127.629 72.0965 127.491 72.6556 127.491C73.7094 127.491 74.2665 128.076 74.2665 129.186V132.035H73.3091V131.66C73.0124 131.975 72.6275 132.133 72.1597 132.133ZM72.472 130.069C72.1878 130.109 71.9742 130.178 71.8372 130.274C71.721 130.355 71.664 130.506 71.664 130.737C71.664 130.897 71.719 131.025 71.832 131.125C71.9502 131.229 72.108 131.281 72.3134 131.281C72.6037 131.281 72.836 131.182 73.0237 130.979C73.2147 130.774 73.3081 130.519 73.3081 130.2V129.953L72.472 130.069Z" fill="black"/>
<path d="M77.1753 132.134C76.6101 132.134 76.1515 131.928 75.8113 131.523C75.4773 131.126 75.3082 130.582 75.3082 129.909C75.3082 129.19 75.4949 128.602 75.8622 128.164C76.2356 127.717 76.7397 127.491 77.3579 127.491C77.8215 127.491 78.1949 127.629 78.4739 127.904V125.591H79.4313V132.035H78.4739V131.607C78.1493 131.957 77.7147 132.134 77.1753 132.134ZM77.4429 128.342C77.0809 128.342 76.805 128.47 76.5996 128.732C76.3891 129.002 76.2812 129.386 76.2812 129.877C76.2812 130.319 76.3829 130.669 76.584 130.919C76.7801 131.163 77.0362 131.281 77.3692 131.281C77.7022 131.281 77.9575 131.166 78.1617 130.929C78.3713 130.687 78.4729 130.387 78.4729 130.011V129.398C78.4729 129.098 78.3775 128.852 78.1803 128.646C77.9854 128.442 77.7447 128.342 77.4429 128.342Z" fill="black"/>
<path d="M85.0868 132.133C84.4333 132.133 83.9033 131.922 83.509 131.504C83.1181 131.091 82.9189 130.537 82.9189 129.861C82.9189 129.126 83.1253 128.542 83.533 128.123C83.9417 127.702 84.4965 127.491 85.1842 127.491C85.8718 127.491 86.3677 127.699 86.7432 128.111C87.1146 128.518 87.3023 129.086 87.3023 129.796C87.3023 130.506 87.1 131.063 86.7007 131.49C86.2992 131.916 85.7557 132.133 85.0868 132.133ZM85.1354 128.342C84.7497 128.342 84.453 128.468 84.232 128.727C84.008 128.989 83.8939 129.362 83.8939 129.836C83.8939 130.309 84.009 130.649 84.2351 130.904C84.4602 131.159 84.7548 131.281 85.1365 131.281C85.5183 131.281 85.8127 131.162 86.0171 130.916C86.2256 130.665 86.3304 130.297 86.3304 129.819C86.3304 129.343 86.2245 128.964 86.0161 128.711C85.8117 128.464 85.5234 128.342 85.1354 128.342Z" fill="black"/>
<path d="M91.2216 132.035V129.52C91.2216 128.464 90.7538 128.342 90.4013 128.342C90.1098 128.342 89.8753 128.449 89.6855 128.668C89.4895 128.893 89.3951 129.171 89.3951 129.52V132.035H88.4377V127.588H89.3951V128.007C89.7146 127.664 90.1274 127.491 90.6295 127.491C91.1315 127.491 91.5162 127.657 91.7848 127.985C92.0462 128.305 92.179 128.762 92.179 129.35V132.036L91.2216 132.035Z" fill="black"/>
<path d="M97.6731 132.125C97.1088 132.125 96.4356 131.888 96.4356 130.762V128.448H95.721V127.588H96.4356V126.613L97.393 126.304V127.588H98.4406V128.448H97.393V130.644C97.393 130.947 97.4531 131.087 97.503 131.15C97.5683 131.232 97.6887 131.273 97.8598 131.273C97.9967 131.273 98.1097 131.238 98.2062 131.165L98.4396 130.988V131.935L98.3639 131.976C98.1854 132.075 97.9542 132.125 97.6731 132.125Z" fill="black"/>
<path d="M102.26 132.035V129.496C102.26 128.463 101.793 128.342 101.44 128.342C101.157 128.342 100.923 128.449 100.729 128.668C100.53 128.893 100.433 129.177 100.433 129.536V132.035H99.4753V125.591H100.433V128.01C100.754 127.666 101.168 127.491 101.667 127.491C102.374 127.491 103.217 127.81 103.217 129.33V132.036H102.259L102.26 132.035Z" fill="black"/>
<path d="M106.365 132.133C105.738 132.133 105.235 131.926 104.873 131.517C104.514 131.115 104.332 130.546 104.332 129.828C104.332 129.148 104.531 128.583 104.919 128.149C105.314 127.713 105.809 127.491 106.393 127.491C106.977 127.491 107.442 127.686 107.767 128.07C108.086 128.448 108.248 128.973 108.248 129.63V130.124H105.322C105.352 130.475 105.462 130.753 105.648 130.95C105.859 131.172 106.145 131.281 106.524 131.281C106.957 131.281 107.36 131.137 107.724 130.85L107.96 130.665V131.665L107.899 131.707C107.511 131.989 106.995 132.133 106.365 132.133ZM107.269 129.268C107.247 128.992 107.167 128.77 107.032 128.611C106.877 128.43 106.664 128.342 106.382 128.342C106.1 128.342 105.879 128.438 105.687 128.635C105.525 128.801 105.413 129.012 105.352 129.267H107.269V129.268Z" fill="black"/>
<path d="M47.3435 147.669L46.2378 144.492H42.1283L41.088 147.669H39.2593L43.4156 135.896H44.9911L49.1618 147.669H47.3435ZM45.6881 142.86L44.178 138.404L42.6812 142.86H45.6881Z" fill="black"/>
<path d="M50.7493 151.391V139.137H52.4824V140.131C53.1359 139.345 54.0114 138.946 55.0931 138.946C56.175 138.946 57.0795 139.34 57.706 140.115C58.32 140.877 58.6322 141.901 58.6322 143.166C58.6322 144.565 58.2837 145.706 57.5961 146.554C56.8969 147.419 55.9302 147.858 54.723 147.858C53.8101 147.858 53.0602 147.533 52.4835 146.892V151.391H50.7493ZM54.7696 140.475C54.0756 140.475 53.5352 140.708 53.1162 141.187C52.6899 141.675 52.4824 142.273 52.4824 143.014V144.146C52.4824 144.762 52.6763 145.271 53.0758 145.699C53.471 146.124 53.9605 146.329 54.5714 146.329C55.2903 146.329 55.8359 146.063 56.2413 145.516C56.6563 144.958 56.8658 144.158 56.8658 143.142C56.8658 142.297 56.6718 141.631 56.2901 141.162C55.9136 140.7 55.4177 140.475 54.7696 140.475Z" fill="black"/>
<path d="M60.4099 151.391V139.137H62.1443V140.131C62.7977 139.345 63.6731 138.946 64.755 138.946C65.8368 138.946 66.7413 139.34 67.3677 140.115C67.9818 140.877 68.2941 141.901 68.2941 143.166C68.2941 144.565 67.9455 145.706 67.2579 146.554C66.5587 147.419 65.5921 147.858 64.3846 147.858C63.472 147.858 62.722 147.533 62.1453 146.892V151.391H60.4099ZM64.4304 140.475C63.7364 140.475 63.196 140.708 62.777 141.187C62.3507 141.675 62.1432 142.273 62.1432 143.014V144.146C62.1432 144.762 62.3371 145.271 62.7364 145.699C63.1318 146.124 63.6213 146.329 64.2322 146.329C64.9501 146.329 65.4967 146.063 65.9021 145.516C66.317 144.958 66.5266 144.158 66.5266 143.142C66.5266 142.297 66.3326 141.631 65.9509 141.162C65.5744 140.7 65.0775 140.475 64.4304 140.475Z" fill="black"/>
<path d="M75.0934 147.858C74.9078 147.858 74.6765 147.843 74.4057 147.812C74.1371 147.783 73.8591 147.739 73.5801 147.683C73.2979 147.626 73.0273 147.555 72.7753 147.47C72.5086 147.382 72.2981 147.283 72.1331 147.171L72.0377 147.105V144.94L72.4008 145.26C72.5646 145.406 72.7659 145.538 72.9993 145.656C73.2378 145.776 73.492 145.878 73.7565 145.963C74.023 146.047 74.2938 146.111 74.5614 146.157C74.8269 146.202 75.0758 146.226 75.2988 146.226C76.0633 146.226 76.6347 146.088 76.9968 145.814C77.3453 145.554 77.5143 145.182 77.5143 144.681C77.5143 144.416 77.4573 144.185 77.3432 143.994C77.223 143.793 77.0539 143.603 76.8391 143.434C76.613 143.256 76.3413 143.083 76.0311 142.92C75.7085 142.748 75.3569 142.567 74.9877 142.38C74.5903 142.179 74.2128 141.971 73.8675 141.764C73.5117 141.549 73.1974 141.311 72.9339 141.053C72.6633 140.788 72.4474 140.482 72.2919 140.147C72.1342 139.806 72.0543 139.404 72.0543 138.953C72.0543 138.399 72.1789 137.908 72.4247 137.493C72.6664 137.085 72.9899 136.743 73.3841 136.479C73.7721 136.219 74.2191 136.022 74.7128 135.895C75.2003 135.769 75.7034 135.706 76.2096 135.706C77.3734 135.706 78.2052 135.847 78.7538 136.135L78.8711 136.195V138.239L78.5277 138.002C77.8992 137.565 77.0736 137.345 76.0758 137.345C75.8029 137.345 75.5249 137.374 75.2512 137.432C74.9866 137.486 74.7491 137.577 74.5448 137.701C74.3476 137.82 74.1849 137.975 74.0614 138.164C73.9442 138.342 73.8841 138.568 73.8841 138.833C73.8841 139.099 73.9307 139.306 74.022 139.485C74.1153 139.668 74.2575 139.838 74.4452 139.993C74.6443 140.157 74.8911 140.319 75.1806 140.475C75.4794 140.636 75.83 140.816 76.2209 141.01C76.6317 141.211 77.0258 141.429 77.392 141.651C77.7675 141.88 78.1025 142.137 78.3878 142.417C78.6781 142.702 78.9116 143.023 79.0827 143.369C79.2579 143.725 79.3462 144.135 79.3462 144.588C79.3462 145.184 79.2259 145.697 78.9904 146.114C78.755 146.532 78.4333 146.874 78.034 147.136C77.6419 147.392 77.1856 147.579 76.6774 147.692C76.1784 147.802 75.6474 147.858 75.0965 147.858H75.0934Z" fill="black"/>
<path d="M83.8999 147.842C82.8305 147.842 81.5547 147.393 81.5547 145.251V140.681H80.1638V139.137H81.5547V137.22L83.2879 136.66V139.137H85.3272V140.681H83.2879V145.022C83.2879 145.511 83.3646 145.857 83.5171 146.048C83.6572 146.225 83.9082 146.314 84.2629 146.314C84.543 146.314 84.7764 146.241 84.9765 146.089L85.3272 145.825V147.499L85.2141 147.562C84.877 147.748 84.4361 147.842 83.8999 147.842Z" fill="black"/>
<path d="M90.5155 147.858C89.2625 147.858 88.245 147.453 87.4908 146.654C86.7409 145.86 86.3603 144.798 86.3603 143.498C86.3603 142.085 86.7565 140.962 87.5366 140.159C88.3185 139.355 89.3848 138.946 90.7043 138.946C92.0236 138.946 92.9748 139.346 93.6915 140.133C94.4031 140.913 94.764 142.003 94.764 143.37C94.764 144.737 94.3762 145.806 93.6096 146.622C92.84 147.441 91.7985 147.855 90.5135 147.855L90.5155 147.858ZM90.6099 140.475C89.8372 140.475 89.2449 140.728 88.7999 141.249C88.3518 141.772 88.1257 142.511 88.1257 143.449C88.1257 144.387 88.3548 145.064 88.806 145.572C89.2562 146.082 89.8475 146.329 90.6099 146.329C91.3722 146.329 91.9635 146.088 92.3743 145.593C92.7891 145.093 92.9997 144.361 92.9997 143.417C92.9997 142.473 92.7891 141.722 92.3743 141.216C91.9635 140.716 91.3867 140.474 90.6109 140.474L90.6099 140.475Z" fill="black"/>
<path d="M96.2507 147.669V139.137H97.984V140.113C98.1323 139.886 98.3055 139.69 98.5015 139.524C98.9196 139.173 99.3956 138.995 99.9153 138.995C100.285 138.995 100.565 139.036 100.773 139.123L100.909 139.178V141.112L100.557 140.843C100.371 140.699 100.085 140.627 99.7099 140.627C99.2276 140.627 98.8314 140.853 98.5004 141.317C98.1572 141.798 97.984 142.473 97.984 143.324V147.669H96.2507Z" fill="black"/>
<path d="M105.44 147.858C104.236 147.858 103.275 147.463 102.581 146.682C101.894 145.909 101.546 144.815 101.546 143.435C101.546 142.125 101.925 141.04 102.673 140.209C103.427 139.373 104.376 138.946 105.496 138.946C106.615 138.946 107.501 139.318 108.121 140.052C108.732 140.775 109.042 141.782 109.042 143.047V143.945H103.338C103.39 144.677 103.61 145.255 103.995 145.662C104.419 146.112 104.992 146.329 105.749 146.329C106.605 146.329 107.406 146.041 108.127 145.474L108.481 145.196V146.975L108.39 147.041C107.645 147.582 106.652 147.857 105.441 147.857L105.44 147.858ZM107.268 142.409C107.233 141.822 107.071 141.356 106.787 141.024C106.472 140.655 106.041 140.475 105.472 140.475C104.902 140.475 104.458 140.669 104.071 141.066C103.73 141.416 103.5 141.866 103.385 142.409H107.268Z" fill="black"/>
<g style="mix-blend-mode:multiply">
<path d="M102.17 141.562L114.283 134.637C114.581 134.466 114.722 134.158 114.706 133.858C114.692 134.127 114.551 134.391 114.283 134.544L102.17 141.469C101.608 141.791 100.907 141.384 100.907 140.737V140.829C100.907 141.477 101.607 141.883 102.17 141.562Z" fill="#D1D3D4"/>
</g>
<g style="mix-blend-mode:screen">
<path d="M102.12 126.347L114.232 133.271C114.555 133.456 114.693 133.8 114.649 134.122C114.682 134.038 114.701 133.949 114.706 133.859C114.692 133.589 114.551 133.325 114.283 133.171L102.17 126.247C101.71 125.983 101.158 126.207 100.973 126.651C101.194 126.275 101.697 126.103 102.121 126.346L102.12 126.347Z" fill="#231F20"/>
</g>
<path d="M240.879 120.724H131.502C129.489 120.724 127.856 122.357 127.856 124.37V150.621C127.856 152.635 129.489 154.267 131.502 154.267H240.879C242.891 154.267 244.525 152.635 244.525 150.621V124.37C244.525 122.357 242.891 120.724 240.879 120.724Z" fill="white"/>
<path d="M240.879 120H131.502C129.096 120 127.127 121.969 127.127 124.375V150.626C127.127 153.031 129.096 155 131.502 155H240.879C243.284 155 245.254 153.031 245.254 150.626V124.375C245.254 121.969 243.284 120 240.879 120ZM244.525 150.626C244.525 152.636 242.888 154.271 240.879 154.271H131.502C129.492 154.271 127.856 152.636 127.856 150.626V124.375C127.856 122.365 129.492 120.729 131.502 120.729H240.879C242.888 120.729 244.525 122.365 244.525 124.375V150.626Z" fill="black"/>
<path d="M150.927 141.177L147.25 137.501L150.927 133.825L155.474 136.424C156.308 136.901 156.308 138.102 155.474 138.578L150.927 141.177Z" fill="url(#paint0_linear_356_5928)"/>
<path d="M147.249 137.501L136.182 126.436C136.555 126.07 137.15 125.947 137.668 126.244L150.927 133.825L147.25 137.501H147.249Z" fill="url(#paint1_linear_356_5928)"/>
<path d="M136.183 148.565L147.25 137.5L150.927 141.176L137.668 148.757C137.15 149.053 136.555 148.931 136.182 148.565H136.183Z" fill="url(#paint2_linear_356_5928)"/>
<path d="M136.182 148.565C135.957 148.346 135.811 148.038 135.811 147.681V127.32C135.811 126.962 135.957 126.655 136.182 126.435L147.249 137.5L136.182 148.565Z" fill="url(#paint3_linear_356_5928)"/>
<path d="M216.498 135.31H212.586V146.249H214.218V142.105H216.498C218.307 142.105 220.086 140.795 220.086 138.709C220.086 136.621 218.307 135.31 216.498 135.31ZM216.54 140.582H214.218V136.833H216.54C217.246 136.833 217.775 137.17 218.096 137.621C218.33 137.95 218.453 138.342 218.453 138.709C218.453 139.319 218.093 140.023 217.434 140.369C217.18 140.503 216.881 140.582 216.54 140.582Z" fill="black"/>
<path d="M226.63 139.012C225.448 139.012 224.223 139.534 223.718 140.688L225.167 141.292C225.476 140.688 226.054 140.491 226.658 140.491C227.503 140.491 228.36 140.998 228.375 141.898L228.376 142.022C228.081 141.854 227.446 141.588 226.673 141.588C225.11 141.588 223.519 142.446 223.519 144.052C223.519 145.515 224.8 146.459 226.236 146.459C227.334 146.459 227.938 145.965 228.319 145.388H228.375V146.232H229.951V142.039C229.951 140.097 228.501 139.012 226.63 139.012ZM226.433 145.007C225.898 145.007 225.152 144.741 225.152 144.08C225.152 143.234 226.082 142.911 226.884 142.911C227.602 142.911 227.932 143.062 228.369 143.274C228.243 144.287 227.377 145.007 226.433 145.007Z" fill="black"/>
<path d="M235.692 139.252L233.821 143.995H233.765L231.823 139.252H230.064L232.977 145.881L231.315 149.568H233.019L237.508 139.252H235.692Z" fill="black"/>
<path d="M222.621 135.312H220.989V146.251H222.621V135.312Z" fill="black"/>
<path d="M168.618 128.962C168.618 129.695 168.402 130.279 167.965 130.716C167.472 131.233 166.828 131.492 166.038 131.492C165.247 131.492 164.635 131.23 164.104 130.704C163.574 130.178 163.309 129.526 163.309 128.75C163.309 127.972 163.574 127.321 164.104 126.795C164.635 126.27 165.279 126.007 166.038 126.007C166.412 126.007 166.773 126.08 167.115 126.227C167.456 126.374 167.731 126.57 167.937 126.814L167.475 127.276C167.127 126.861 166.648 126.652 166.038 126.652C165.485 126.652 165.007 126.846 164.604 127.236C164.2 127.624 164 128.128 164 128.75C164 129.371 164.2 129.875 164.604 130.264C165.007 130.653 165.485 130.847 166.038 130.847C166.624 130.847 167.112 130.653 167.505 130.261C167.758 130.006 167.905 129.653 167.944 129.197H166.038V128.568H168.582C168.606 128.705 168.618 128.835 168.618 128.963V128.962Z" fill="black"/>
<path d="M179.573 131.379V126.129H180.247V131.379H179.573Z" fill="black"/>
<path d="M172.713 131.379H169.581V126.164H172.594V126.733H170.21V128.515H172.365V129.079H170.21V130.811H172.713V131.379Z" fill="black"/>
<path d="M176.914 126.733H175.367V131.379H174.739V126.733H173.196V126.164H176.915L176.914 126.733Z" fill="black"/>
<path d="M184.769 126.733H183.221V131.379H182.594V126.733H181.051V126.164H184.77V126.733H184.769Z" fill="black"/>
<path d="M189.573 131.361C188.772 131.361 188.128 131.121 187.646 130.639C187.164 130.158 186.922 129.532 186.922 128.76C186.922 127.931 187.168 127.271 187.659 126.777C188.152 126.283 188.82 126.036 189.667 126.036C190.449 126.036 191.079 126.276 191.555 126.755C192.033 127.234 192.271 127.861 192.271 128.634C192.271 129.476 192.027 130.139 191.537 130.629C191.048 131.117 190.394 131.363 189.573 131.363V131.361ZM189.622 126.583C189.026 126.583 188.544 126.779 188.174 127.17C187.803 127.559 187.618 128.072 187.618 128.707C187.618 129.343 187.797 129.853 188.16 130.239C188.522 130.626 188.992 130.819 189.573 130.819C190.194 130.819 190.683 130.635 191.042 130.266C191.399 129.897 191.577 129.381 191.577 128.718C191.577 128.053 191.404 127.511 191.057 127.14C190.71 126.768 190.232 126.583 189.622 126.583Z" fill="black"/>
<path d="M197.509 131.379H196.739L193.981 127.252C193.91 127.145 193.853 127.033 193.807 126.915H193.785C193.804 127.031 193.815 127.13 193.815 127.506V131.379H193.188V126.164H194.003L196.687 130.223C196.799 130.398 196.873 130.519 196.903 130.582H196.918C196.893 130.428 196.881 130.166 196.881 129.794V126.164H197.509V131.379Z" fill="black"/>
<path d="M172.96 136.639L171.899 137.699C171.892 137.708 171.878 137.708 171.868 137.699C171.734 137.565 170.723 136.614 169.198 136.614C167.447 136.609 165.029 137.659 165.029 140.912C165.029 141.404 165.313 144.113 168.315 144.764C168.79 144.867 169.279 144.885 169.758 144.807C170.79 144.635 172.489 144.019 172.794 141.811H169.079V140.252H174.314C174.348 140.514 174.692 142.94 173.259 144.578C171.824 146.215 170.239 146.402 169.012 146.402C167.783 146.402 164.741 145.73 163.566 142.397C162.937 140.48 163.51 138.319 164.775 136.975C166.04 135.63 167.503 135.074 169.239 135.057C170.962 135.041 172.381 135.986 172.96 136.606C172.968 136.615 172.966 136.63 172.96 136.639Z" fill="black"/>
<path d="M178.754 139.098C176.72 139.098 175.069 140.737 175.069 142.76C175.069 144.783 176.72 146.423 178.754 146.423C180.789 146.423 182.44 144.783 182.44 142.76C182.44 140.737 180.789 139.098 178.754 139.098ZM178.754 144.987C177.619 144.987 176.696 143.989 176.696 142.761C176.696 141.534 177.619 140.535 178.754 140.535C179.891 140.535 180.814 141.534 180.814 142.761C180.814 143.989 179.891 144.987 178.754 144.987Z" fill="black"/>
<path d="M186.9 139.098C184.866 139.098 183.215 140.737 183.215 142.76C183.215 144.783 184.866 146.423 186.9 146.423C188.935 146.423 190.586 144.783 190.586 142.76C190.586 140.737 188.935 139.098 186.9 139.098ZM186.9 144.987C185.766 144.987 184.842 143.989 184.842 142.761C184.842 141.534 185.766 140.535 186.9 140.535C188.037 140.535 188.96 141.534 188.96 142.761C188.96 143.989 188.037 144.987 186.9 144.987Z" fill="black"/>
<path d="M196.898 139.334V139.908C196.837 139.908 196.828 139.893 196.812 139.874C196.301 139.29 195.496 139.098 195.132 139.098C192.828 139.098 191.405 140.802 191.405 142.76C191.405 144.72 193.088 146.419 195.11 146.403C196.162 146.344 196.721 145.724 196.828 145.602C196.873 145.555 196.902 145.578 196.902 145.619C196.902 145.662 196.895 145.884 196.895 146.184C196.833 148.205 195.305 148.233 195.001 148.233C193.687 148.233 193.247 147.216 193.121 146.962C193.118 146.954 193.11 146.951 193.103 146.954C193.007 146.994 192.346 147.267 191.723 147.525C191.715 147.528 191.712 147.536 191.715 147.542C192.462 149.114 193.706 149.674 194.917 149.674C196.13 149.674 196.651 149.414 197.402 148.77C198.153 148.126 198.431 146.86 198.431 146.071V139.333C198.431 139.326 198.424 139.318 198.415 139.318H196.911C196.903 139.318 196.896 139.326 196.896 139.333L196.898 139.334ZM195.019 144.986C193.922 144.986 193.032 143.989 193.032 142.761C193.032 141.534 193.922 140.537 195.019 140.537C196.117 140.537 197.006 141.534 197.006 142.761C197.006 143.989 196.117 144.986 195.019 144.986Z" fill="black"/>
<path d="M201.218 135.47H199.675C199.666 135.47 199.66 135.478 199.66 135.485V146.169C199.66 146.176 199.666 146.183 199.675 146.183H201.218C201.227 146.183 201.233 146.176 201.233 146.169V135.485C201.233 135.478 201.227 135.47 201.218 135.47Z" fill="black"/>
<path d="M205.705 144.963C204.473 144.963 204.037 144.056 203.926 143.865C203.926 143.865 207.936 142.204 208.807 141.842C208.819 141.838 208.823 141.824 208.819 141.814C208.46 140.888 208.105 140.276 207.461 139.75C206.811 139.219 205.557 138.762 204.076 139.416C202.596 140.072 201.846 141.77 202.117 143.405C202.387 145.04 203.812 146.405 205.696 146.405C207.581 146.405 208.491 145.154 208.74 144.807C208.747 144.797 208.746 144.784 208.735 144.776C208.612 144.694 207.915 144.232 207.511 143.963C207.5 143.958 207.489 143.959 207.481 143.969C206.792 144.981 205.929 144.965 205.705 144.965V144.963ZM203.663 142.629C203.678 142.229 203.713 141.261 204.794 140.706C205.01 140.579 206.286 140.141 206.936 141.267C206.94 141.273 206.936 141.28 206.931 141.283C206.567 141.436 203.909 142.545 203.679 142.64C203.672 142.643 203.663 142.637 203.663 142.629Z" fill="black"/>
<path d="M2 12.6017L17.4611 4.97994V41.51H8.39578V17.2292L2 20.0602V12.6017ZM30.6689 23.7077C30.6689 29.1519 32.0593 33.616 35.6186 33.616C39.1224 33.616 40.346 29.1519 40.346 23.7077C40.346 18.2092 39.1224 13.6905 35.6186 13.6905C32.0593 13.6905 30.6689 18.2092 30.6689 23.7077ZM21.7704 23.7077C21.7704 13.4183 24.9405 5.25215 35.6186 5.25215C46.2412 5.25215 49.2444 13.4183 49.2444 23.7077C49.2444 33.9427 46.2412 42 35.6186 42C24.9405 42 21.7704 33.9427 21.7704 23.7077ZM66.4184 41.51L84.7158 5.79656H89.9993L71.6462 41.51H66.4184ZM60.8012 12.384C60.8012 8.30086 63.9713 5.08883 68.1981 5.08883C72.3692 5.08883 75.6505 8.30086 75.6505 12.384C75.6505 16.5215 72.3692 19.6246 68.1981 19.6246C63.9713 19.6246 60.8012 16.5215 60.8012 12.384ZM65.5841 12.384C65.5841 13.8539 66.6964 14.9427 68.1981 14.9427C69.6997 14.9427 70.8676 13.8539 70.8676 12.384C70.8676 10.914 69.6997 9.77077 68.1981 9.77077C66.6964 9.77077 65.5841 10.914 65.5841 12.384ZM80.934 34.7593C80.934 30.6762 84.1041 27.4642 88.3308 27.4642C92.502 27.4642 95.7833 30.6762 95.7833 34.7593C95.7833 38.8968 92.502 42 88.3308 42C84.1041 42 80.934 38.8968 80.934 34.7593ZM85.7169 34.7593C85.7169 36.2292 86.8292 37.3181 88.3308 37.3181C89.8325 37.3181 91.0004 36.2292 91.0004 34.7593C91.0004 33.2894 89.8325 32.1461 88.3308 32.1461C86.8292 32.1461 85.7169 33.2894 85.7169 34.7593ZM117.89 41.51H108.603V4H124.453C133.518 4 137.578 10.2607 137.578 16.5215C137.578 21.8023 134.631 27.0831 128.402 28.553L137.745 41.51H126.956L118.725 28.9885H117.89V41.51ZM124.008 11.9484H117.89V21.149H124.008C127.067 21.149 128.179 18.7536 128.179 16.5215C128.179 14.3438 127.067 11.9484 124.008 11.9484ZM164.529 41.51L161.304 32.9083H149.235L146.009 41.51H136.054L150.181 4H160.303L174.373 41.51H164.529ZM155.186 12.7106L151.738 25.0688H158.912L155.186 12.7106ZM202.125 14.0716C202.125 16.1948 200.958 20.3324 196.731 21.4756C201.959 22.1834 204.128 26.8109 204.128 30.404C204.128 35.8481 200.846 41.51 191.503 41.51H174.707V4H190.391C197.509 4 202.125 8.02865 202.125 14.0716ZM184.05 18.4814H189.056C191.002 18.4814 192.282 17.2837 192.282 15.3782C192.282 13.4183 191.392 11.9484 189.167 11.9484H184.05V18.4814ZM189.946 25.9398H184.05V33.5616H190.001C192.893 33.5616 194.284 31.6017 194.284 29.6963C194.284 27.9542 193.06 25.9398 189.946 25.9398ZM230.742 41.51L227.516 32.9083H215.448L212.222 41.51H202.267L216.393 4H226.515L240.586 41.51H230.742ZM221.398 12.7106L217.95 25.0688H225.125L221.398 12.7106ZM245.052 11.9484H235.152V4H264.239V11.9484H254.339V41.51H245.052V11.9484ZM273.813 11.9484H263.913V4H293V11.9484H283.1V41.51H273.813V11.9484Z" fill="#FFA900"/>
<path d="M15.4024 72.1135L13.8842 68.0133H8.20387L6.68562 72.1135H2L8.64887 54.2336H13.413L20.0357 72.1135H15.4024ZM11.0048 58.3856L9.38181 64.2764H12.7586L11.0048 58.3856ZM26.8475 72.347C23.1043 72.347 19.7275 69.726 19.7275 65.5999V54.2336H24.1252V65.5999C24.1252 67.1829 25.4863 68.2728 26.8475 68.2728C28.2087 68.2728 29.5699 67.1829 29.5699 65.5999V54.2336H33.9676V65.5999C33.9676 69.726 30.5908 72.347 26.8475 72.347ZM40.6332 72.1135H36.2093V54.2336H47.8056V58.0223H40.6332V61.4478H46.3135V65.1847H40.6332V72.1135ZM57.3284 58.1002V68.2468H60.0769C62.6161 68.2468 63.8987 65.8334 63.8987 63.2124C63.8987 60.5914 62.6161 58.1002 60.0769 58.1002H57.3284ZM52.9307 72.1135V54.2336H60.0769C65.2861 54.2336 68.2702 58.1261 68.2702 63.2124C68.2702 68.2987 65.2861 72.1135 60.0769 72.1135H52.9307ZM81.7533 72.1135H69.8168V54.2336H81.5177V58.0223H74.1883V61.4478H80.6277V65.1587H74.1883V68.3247H81.7533V72.1135ZM83.4562 72.1135V54.2336H87.8277V72.1135H83.4562ZM99.641 54.2336H104.012V72.1135H100.191L94.6674 62.3561V72.1135H90.2959V54.2336H94.2486L99.641 63.8612V54.2336ZM118.403 72.1135H106.466V54.2336H118.167V58.0223H110.838V61.4478H117.277V65.1587H110.838V68.3247H118.403V72.1135ZM136.709 72.1135H124.772V54.2336H136.473V58.0223H129.144V61.4478H135.583V65.1587H129.144V68.3247H136.709V72.1135ZM142.783 72.1135H138.412V54.2336H145.872C150.139 54.2336 152.05 57.2179 152.05 60.2022C152.05 62.7194 150.662 65.2366 147.731 65.9372L152.128 72.1135H147.05L143.176 66.1448H142.783V72.1135ZM145.663 58.0223H142.783V62.408H145.663C147.102 62.408 147.626 61.2661 147.626 60.2022C147.626 59.1642 147.102 58.0223 145.663 58.0223ZM152.668 66.7936H157.091C157.17 67.7538 157.772 68.5323 159.316 68.5323C160.468 68.5323 161.541 68.0652 161.541 66.9234C161.541 66.6379 161.541 66.067 159.735 65.4442L157.615 64.7435C153.584 63.6536 152.903 61.1364 152.903 59.4756C152.903 56.2317 155.573 54 159.212 54C162.772 54 165.416 56.0501 165.416 59.5794H161.044C161.044 58.6192 160.494 57.9185 159.159 57.9185C157.981 57.9185 157.248 58.4894 157.248 59.3458C157.248 59.7091 157.353 60.3319 158.924 60.799L160.992 61.4478C165.73 62.901 165.991 65.6258 165.991 66.8974C165.991 70.8419 162.353 72.347 159.316 72.347C155.259 72.347 152.668 70.1931 152.668 66.7936ZM170.601 58.0223H165.942V54.2336H179.632V58.0223H174.973V72.1135H170.601V58.0223ZM192.724 72.1135H180.788V54.2336H192.489V58.0223H185.159V61.4478H191.599V65.1587H185.159V68.3247H192.724V72.1135ZM210.192 72.1135L208.674 68.0133H202.993L201.475 72.1135H196.79L203.438 54.2336H208.203L214.825 72.1135H210.192ZM205.794 58.3856L204.171 64.2764H207.548L205.794 58.3856ZM219.354 72.1135H214.982V54.2336H222.443C226.709 54.2336 228.62 57.2179 228.62 60.2022C228.62 63.2124 226.709 66.1448 222.443 66.1448H219.354V72.1135ZM222.233 58.0223H219.354V62.408H222.233C223.673 62.408 224.197 61.2661 224.197 60.2022C224.197 59.1642 223.673 58.0223 222.233 58.0223ZM233.964 72.1135H229.593V54.2336H237.053C241.32 54.2336 243.231 57.2179 243.231 60.2022C243.231 63.2124 241.32 66.1448 237.053 66.1448H233.964V72.1135ZM236.844 58.0223H233.964V62.408H236.844C238.284 62.408 238.807 61.2661 238.807 60.2022C238.807 59.1642 238.284 58.0223 236.844 58.0223ZM253 67.5721H243.707V64.0688H253V67.5721ZM17.2086 83.6874C17.2086 84.6995 16.6589 86.6717 14.6695 87.2167C17.1301 87.554 18.151 89.7598 18.151 91.4725C18.151 94.0676 16.6066 96.7664 12.2089 96.7664H4.30355V78.8865H11.6854C15.036 78.8865 17.2086 80.8069 17.2086 83.6874ZM8.70122 85.7894H11.0571C11.9733 85.7894 12.5754 85.2185 12.5754 84.3102C12.5754 83.376 12.1565 82.6753 11.1095 82.6753H8.70122V85.7894ZM11.4759 89.3446H8.70122V92.9777H11.5021C12.8633 92.9777 13.5177 92.0435 13.5177 91.1352C13.5177 90.3048 12.9418 89.3446 11.4759 89.3446ZM31.5156 96.7664H19.5791V78.8865H31.28V82.6753H23.9506V86.1008H30.39V89.8117H23.9506V92.9777H31.5156V96.7664ZM32.0711 91.4466H36.4949C36.5735 92.4068 37.1755 93.1853 38.7199 93.1853C39.8717 93.1853 40.945 92.7182 40.945 91.5763C40.945 91.2909 40.945 90.72 39.1388 90.0972L37.0185 89.3965C32.9873 88.3066 32.3067 85.7894 32.3067 84.1285C32.3067 80.8847 34.9767 78.653 38.6152 78.653C42.1753 78.653 44.8191 80.7031 44.8191 84.2323H40.4476C40.4476 83.2722 39.8979 82.5715 38.5629 82.5715C37.3849 82.5715 36.652 83.1424 36.652 83.9988C36.652 84.3621 36.7567 84.9849 38.3273 85.452L40.3953 86.1008C45.1332 87.554 45.395 90.2788 45.395 91.5504C45.395 95.4949 41.7564 97 38.7199 97C34.6626 97 32.0711 94.8461 32.0711 91.4466ZM50.004 82.6753H45.3446V78.8865H59.035V82.6753H54.3755V96.7664H50.004V82.6753ZM72.1272 96.7664H60.1907V78.8865H71.8916V82.6753H64.5622V86.1008H71.0016V89.8117H64.5622V92.9777H72.1272V96.7664ZM84.7458 96.7664H73.8302V78.8865H78.254V92.9777H84.7458V96.7664ZM96.7237 96.7664H85.8081V78.8865H90.2319V92.9777H96.7237V96.7664ZM104.466 97C100.723 97 97.3463 94.379 97.3463 90.2529V78.8865H101.744V90.2529C101.744 91.8359 103.105 92.9258 104.466 92.9258C105.828 92.9258 107.189 91.8359 107.189 90.2529V78.8865H111.586V90.2529C111.586 94.379 108.21 97 104.466 97ZM123.173 78.8865H127.544V96.7664H123.723L118.2 87.0091V96.7664H113.828V78.8865H117.781L123.173 88.5142V78.8865ZM145.312 81.819L142.066 84.5438C141.124 83.4019 139.815 82.6753 138.27 82.6753C135.548 82.6753 133.402 84.9849 133.402 87.8395C133.402 90.6421 135.548 93.0555 138.27 93.0555C140.391 93.0555 142.014 92.3289 142.406 90.6681H137.354V87.1907H147.17C147.17 94.0416 143.427 97 138.27 97C133.061 97 128.978 92.8739 128.978 87.8395C128.978 82.7791 133.061 78.653 138.27 78.653C141.228 78.653 143.741 79.8727 145.312 81.819Z" fill="#081A4E"/>
</g>
<defs>
<linearGradient id="paint0_linear_356_5928" x1="127.127" y1="137.501" x2="127.231" y2="137.501" gradientUnits="userSpaceOnUse">
<stop stop-color="#FFBC00"/>
<stop offset="1" stop-color="#FFDC00"/>
</linearGradient>
<linearGradient id="paint1_linear_356_5928" x1="148.71" y1="136.275" x2="138.685" y2="124.33" gradientUnits="userSpaceOnUse">
<stop stop-color="#00F076"/>
<stop offset="1" stop-color="#0EDA74"/>
</linearGradient>
<linearGradient id="paint2_linear_356_5928" x1="127.129" y1="138.725" x2="138.688" y2="150.672" gradientUnits="userSpaceOnUse">
<stop stop-color="#FF3A44"/>
<stop offset="1" stop-color="#E12653"/>
</linearGradient>
<linearGradient id="paint3_linear_356_5928" x1="131.872" y1="139.51" x2="145.273" y2="133.262" gradientUnits="userSpaceOnUse">
<stop stop-color="#00DFFF"/>
<stop offset="1" stop-color="#00B4FF"/>
</linearGradient>
</defs>
</svg>
