<svg xmlns="http://www.w3.org/2000/svg" xmlns:xlink="http://www.w3.org/1999/xlink" viewBox="0 0 40 26"><defs><path id="a" d="M.07.01h25.81v8.6H.07z"></path><path id="c" d="M.01.03h28.97v4.25H0z"></path></defs><g fill="none" fill-rule="evenodd"><path fill="#FFF" d="M0 0h40v26H0z"></path><path fill="#005498" d="M30.82 7.3h-8.97l-.92 1.04-2.95 3.36-.92 1.04H8.2l.9-1.05.42-.5.9-1.05H6.34c-.74 0-1.35.64-1.35 1.4v2.96c0 .77.6 1.4 1.35 1.4h15.62c.75 0 1.77-.46 2.26-1.04l2.36-2.7 4.24-4.86z"></path><g transform="translate(8.1 4.1)"><mask id="b" fill="#fff"><use xlink:href="#a"></use></mask><path fill="#FFD800" d="M24.53.03c.74 0 1.35.64 1.35 1.4v2.95c0 .78-.6 1.4-1.35 1.4h-4.06l.9-1.04.45-.52.91-1.04h-8.98L8.98 8.61H.07l6.38-7.28.24-.28A3.5 3.5 0 018.96.01h15.57v.02z" mask="url(#b)"></path></g><g transform="translate(5 17.71)"><mask id="d" fill="#fff"><use xlink:href="#c"></use></mask><path fill="#005498" d="M3.06 2.94a.9.9 0 00-.14-.5.87.87 0 00-.35-.32.78.78 0 00.34-.33c.08-.15.13-.31.13-.48v-.1c0-.23-.05-.41-.13-.56a.96.96 0 00-.35-.36C2.4.19 2.22.14 2 .09a4.44 4.44 0 00-.7-.06h-.28L.75.05c-.1 0-.18 0-.26.02L.31.09C.2.12.13.14.08.2.03.25.01.35.01.47v3.39c0 .13.02.2.07.27.05.04.13.08.23.1l.2.02c.07.02.15.02.25.03h.56c.24 0 .47-.01.67-.05.21-.03.4-.1.55-.2a1 1 0 00.38-.38c.1-.16.14-.37.14-.61v-.1zm-.94-1.6l-.02.17a.3.3 0 01-.1.14.6.6 0 01-.17.1.89.89 0 01-.27.03H.94V.82h.43c.28 0 .48.04.59.1.11.07.17.19.17.34v.08zM2.14 3c0 .16-.05.28-.16.36-.1.08-.3.13-.58.13H.94V2.44h.62c.22 0 .38.05.46.15.08.1.12.22.12.35v.05zm3.95-.87c0-.21-.04-.39-.1-.52a.97.97 0 00-.25-.35.94.94 0 00-.4-.2A1.97 1.97 0 004.8.98a4.08 4.08 0 00-.95.12c-.07.02-.1.06-.1.13v.45l.02.08.07.02h.02l.16-.01.23-.01.27-.01h.26c.13 0 .23.02.3.07.07.04.11.15.11.3v.2h-.3c-.47 0-.82.07-1.03.22-.21.15-.32.4-.32.72v.05a1 1 0 00.08.45c.06.13.13.22.22.3a.93.93 0 00.65.2c.16 0 .31-.02.43-.06.11-.05.23-.1.34-.19v.1c0 .03.01.05.04.08a.1.1 0 00.08.03h.61a.1.1 0 00.09-.03.1.1 0 00.03-.09V2.12h-.02zM5.2 3.47a1.22 1.22 0 01-.45.11.54.54 0 01-.27-.04c-.06-.04-.08-.1-.08-.23v-.05a.7.7 0 01.02-.17.3.3 0 01.08-.13.3.3 0 01.15-.07l.24-.02h.31v.6zm4.27.63V2.25c0-.17-.01-.33-.05-.5a1.14 1.14 0 00-.15-.4.67.67 0 00-.3-.26 1 1 0 00-.49-.1c-.17 0-.33.02-.47.06a1.6 1.6 0 00-.43.23v-.14a.1.1 0 00-.04-.08.1.1 0 00-.08-.03h-.62a.1.1 0 00-.08.03.1.1 0 00-.03.08V4.1c0 .04.01.06.03.09a.1.1 0 00.08.03h.67a.1.1 0 00.08-.03.1.1 0 00.03-.09V1.92c.1-.05.19-.1.28-.13a.65.65 0 01.25-.04c.08 0 .15 0 .2.02.06.01.1.05.13.08.04.05.05.1.06.16l.01.24V4.1c0 .04.01.06.04.09a.1.1 0 00.08.03h.66a.1.1 0 00.08-.03c.05-.03.06-.06.06-.09zm2.71-.04v-.5c0-.03 0-.06-.03-.07a.16.16 0 00-.08-.02h-.01l-.3.02-.38.01a.44.44 0 01-.32-.14.45.45 0 01-.09-.2 1.17 1.17 0 01-.03-.3v-.47c0-.12 0-.23.03-.3a.63.63 0 01.1-.2.44.44 0 01.31-.14h.38l.3.03h.01l.08-.02c.02-.01.03-.04.03-.07v-.5c0-.05 0-.07-.02-.08l-.09-.05-.3-.05c-.12-.03-.26-.03-.43-.03-.4 0-.7.12-.94.36-.23.24-.36.6-.36 1.05v.47c0 .45.12.8.36 1.05.23.24.55.36.94.36.16 0 .3-.01.43-.03l.3-.05a.17.17 0 00.1-.05l.01-.08zm3.07-1.63c0-.22-.04-.43-.1-.6a1.16 1.16 0 00-.7-.74c-.17-.07-.36-.1-.6-.1-.22 0-.42.03-.59.1a1.16 1.16 0 00-.7.74c-.05.17-.09.38-.09.6v.4c0 .21.04.42.1.6a1.16 1.16 0 00.7.74 1.84 1.84 0 001.19 0 1.16 1.16 0 00.7-.75c.05-.17.09-.38.09-.6v-.4zm-.9.4c0 .44-.16.67-.5.67-.15 0-.28-.05-.36-.17a.9.9 0 01-.12-.5v-.4c0-.23.04-.4.12-.51.08-.12.2-.17.37-.17.32 0 .5.23.5.68v.4zm4.17 1.27V2.25c0-.17 0-.33-.04-.5a1.14 1.14 0 00-.15-.4.67.67 0 00-.3-.26 1 1 0 00-.5-.1c-.16 0-.32.02-.46.06a1.6 1.6 0 00-.44.23v-.14a.1.1 0 00-.03-.08.1.1 0 00-.08-.03h-.62a.1.1 0 00-.08.03.1.1 0 00-.04.08V4.1c0 .04.02.06.04.09a.1.1 0 00.08.03h.66a.1.1 0 00.08-.03.1.1 0 00.04-.09V1.92c.09-.05.18-.1.27-.13a.65.65 0 01.26-.04c.08 0 .14 0 .2.02.06.01.1.05.13.08.03.05.04.1.05.16.02.07.02.15.02.24V4.1c0 .04 0 .06.03.09a.1.1 0 00.08.03h.67a.1.1 0 00.08-.03c.04-.03.05-.06.05-.09zm2.41.02v-.43c0-.06-.03-.1-.11-.1h-.28c-.08 0-.14 0-.15-.04-.02-.03-.02-.1-.02-.22V1.71h.45a.1.1 0 00.08-.03.1.1 0 00.03-.08v-.46a.1.1 0 00-.03-.08.1.1 0 00-.08-.03h-.45v-.6l-.02-.06a.16.16 0 00-.07-.02h-.01l-.67.11-.08.04a.1.1 0 00-.03.07v.45h-.46a.1.1 0 00-.08.03.1.1 0 00-.04.08v.37c0 .04.01.06.04.07.02.03.04.04.08.05l.44.07V3.3c0 .2.03.36.06.48.05.13.1.22.17.3a.6.6 0 00.3.13c.1.02.24.04.4.04.07 0 .14 0 .2-.02l.23-.03c.07 0 .1-.04.1-.1zm2.95-2c0-.21-.04-.39-.1-.52a.97.97 0 00-.25-.35.94.94 0 00-.4-.2 1.97 1.97 0 00-.54-.07 4.08 4.08 0 00-.95.12c-.07.02-.1.06-.1.13v.45c0 .03 0 .05.02.08l.07.02h.02l.16-.01.22-.01.26-.01h.27c.12 0 .23.02.3.07.06.04.11.15.11.3v.2h-.3c-.47 0-.82.07-1.03.22-.22.15-.32.4-.32.72v.05a1 1 0 00.08.45c.06.13.13.22.22.3a.93.93 0 00.65.2c.16 0 .31-.02.43-.06.11-.05.22-.1.34-.19v.1c0 .03.01.05.03.08a.1.1 0 00.08.03h.62a.1.1 0 00.08-.03.1.1 0 00.04-.09V2.12h-.01zM23 3.47a1.22 1.22 0 01-.46.11.54.54 0 01-.27-.04c-.05-.04-.08-.1-.08-.23v-.05a.7.7 0 01.03-.17.3.3 0 01.08-.13.3.3 0 01.14-.07l.25-.02h.3v.6zm3.58.59v-.5c0-.03 0-.06-.03-.07a.16.16 0 00-.07-.02h-.01l-.3.02-.38.01a.44.44 0 01-.32-.14.45.45 0 01-.1-.2 1.17 1.17 0 01-.03-.3v-.47c0-.12.02-.23.04-.3a.63.63 0 01.1-.2.44.44 0 01.31-.14h.38l.3.03h.01l.07-.02c.02-.01.03-.04.03-.07v-.5c0-.05 0-.07-.02-.08l-.1-.05-.29-.05c-.13-.03-.26-.03-.44-.03-.39 0-.7.12-.94.36-.22.24-.35.6-.35 1.05v.47c0 .45.11.8.35 1.05.23.24.55.36.94.36.17 0 .31-.01.44-.03l.3-.05a.17.17 0 00.09-.05c.02-.01.02-.05.02-.08zm2.39.06v-.43c0-.06-.04-.1-.12-.1h-.27c-.08 0-.14 0-.15-.04-.02-.03-.02-.1-.02-.22V1.71h.44a.1.1 0 00.08-.03.1.1 0 00.04-.08v-.46a.1.1 0 00-.04-.08.1.1 0 00-.08-.03h-.44v-.6c0-.03-.02-.05-.03-.06a.16.16 0 00-.07-.02l-.67.11-.08.04c-.03.02-.04.04-.04.07v.45h-.44a.1.1 0 00-.08.03.1.1 0 00-.04.08v.37c0 .04.01.06.04.07.02.03.04.04.08.05l.44.07V3.3c0 .2.03.36.06.48.05.13.1.22.17.3a.6.6 0 00.29.13c.11.02.25.04.4.04.08 0 .15 0 .22-.02l.22-.03c.05 0 .09-.04.09-.1z" mask="url(#d)"></path></g></g></svg>