<svg width="45" height="25" viewBox="0 0 45 25" fill="none" xmlns="http://www.w3.org/2000/svg">
<path d="M40.679 0H4.321C1.93458 0 0 1.93458 0 4.321V20.679C0 23.0654 1.93458 25 4.321 25H40.679C43.0654 25 45 23.0654 45 20.679V4.321C45 1.93458 43.0654 0 40.679 0Z" fill="#FFB3C7"/>
<path d="M40.7937 14.6467C40.205 14.6467 39.7277 15.1282 39.7277 15.7224C39.7277 16.3164 40.205 16.7981 40.7937 16.7981C41.3825 16.7981 41.8598 16.3164 41.8598 15.7224C41.8598 15.1282 41.3825 14.6467 40.7937 14.6467ZM37.2864 13.815C37.2864 13.0016 36.5975 12.3424 35.7475 12.3424C34.8976 12.3424 34.2085 13.0016 34.2085 13.815C34.2085 14.6284 34.8975 15.2878 35.7475 15.2878C36.5975 15.2878 37.2864 14.6284 37.2864 13.815ZM37.2921 10.9528H38.9905V16.677H37.2921V16.3112C36.8123 16.6414 36.2331 16.8355 35.6084 16.8355C33.9553 16.8355 32.6151 15.4832 32.6151 13.815C32.6151 12.1468 33.9553 10.7946 35.6084 10.7946C36.2331 10.7946 36.8123 10.9887 37.2921 11.319V10.9528ZM23.7001 11.6984V10.9529H21.9612V16.677H23.704V14.0045C23.704 13.1028 24.6725 12.6182 25.3445 12.6182C25.3514 12.6182 25.3578 12.6188 25.3647 12.6189V10.9533C24.675 10.9533 24.0406 11.2512 23.7001 11.6984ZM19.3685 13.815C19.3685 13.0016 18.6795 12.3424 17.8295 12.3424C16.9796 12.3424 16.2905 13.0017 16.2905 13.815C16.2905 14.6284 16.9796 15.2878 17.8295 15.2878C18.6795 15.2878 19.3685 14.6284 19.3685 13.815ZM19.3742 10.9528H21.0727V16.677H19.3742V16.3112C18.8943 16.6414 18.3152 16.8355 17.6906 16.8355C16.0374 16.8355 14.6972 15.4832 14.6972 13.815C14.6972 12.1468 16.0374 10.7946 17.6906 10.7946C18.3152 10.7946 18.8944 10.9887 19.3742 11.319V10.9528ZM29.5972 10.7989C28.9187 10.7989 28.2766 11.0114 27.8473 11.5978V10.9532H26.1562V16.6771H27.8681V13.669C27.8681 12.7985 28.4465 12.3723 29.1431 12.3723C29.8895 12.3723 30.3187 12.8222 30.3187 13.6572V16.6771H32.0151V13.037C32.0151 11.7049 30.9655 10.7989 29.5972 10.7989ZM12.2232 16.6771H14.0009V8.40195H12.2232V16.6771ZM4.41406 16.6793H6.29646V8.40041H4.41406V16.6793ZM10.9981 8.40041C10.9981 10.1927 10.3059 11.86 9.07246 13.0993L11.6745 16.6796H9.34946L6.52166 12.7886L7.25147 12.2371C8.46177 11.3223 9.15597 9.92389 9.15597 8.40039L10.9981 8.40041Z" fill="#0A0B09"/>
</svg>
