<svg width="316" height="365" viewBox="0 0 316 365" fill="none" xmlns="http://www.w3.org/2000/svg">
<g clip-path="url(#clip0_4558_41570)">
<path d="M0 8C0 3.58172 3.58172 0 8 0H376C380.418 0 384 3.58172 384 8V479C384 483.418 380.418 487 376 487H7.99999C3.58171 487 0 483.418 0 479V8Z" fill="#F3F6F7"/>
<path d="M210.944 330.609H118.874C117.179 330.609 115.805 331.983 115.805 333.678V355.775C115.805 357.47 117.179 358.844 118.874 358.844H210.944C212.639 358.844 214.013 357.47 214.013 355.775V333.678C214.013 331.983 212.639 330.609 210.944 330.609Z" fill="white"/>
<path d="M210.943 330H118.873C116.848 330 115.19 331.657 115.19 333.683V355.78C115.19 357.806 116.848 359.463 118.873 359.463H210.943C212.969 359.463 214.626 357.806 214.626 355.78V333.683C214.626 331.657 212.969 330 210.943 330ZM214.012 355.78C214.012 357.472 212.635 358.849 210.943 358.849H118.873C117.181 358.849 115.804 357.472 115.804 355.78V333.683C115.804 331.991 117.181 330.614 118.873 330.614H210.943C212.635 330.614 214.012 331.991 214.012 333.683V355.78Z" fill="black"/>
<path d="M135.223 347.826L132.128 344.732L135.223 341.638L139.052 343.826C139.753 344.227 139.753 345.238 139.052 345.638L135.223 347.826Z" fill="url(#paint0_linear_4558_41570)"/>
<path d="M132.129 344.732L122.812 335.418C123.127 335.109 123.628 335.006 124.064 335.256L135.225 341.638L132.13 344.732H132.129Z" fill="url(#paint1_linear_4558_41570)"/>
<path d="M122.812 354.046L132.129 344.731L135.224 347.826L124.063 354.207C123.627 354.456 123.126 354.354 122.812 354.046H122.812Z" fill="url(#paint2_linear_4558_41570)"/>
<g style="mix-blend-mode:multiply">
<path d="M124.063 354.208L139.053 345.638C139.422 345.427 139.597 345.047 139.577 344.675C139.559 345.008 139.384 345.335 139.053 345.524L124.063 354.094C123.367 354.492 122.5 353.989 122.5 353.188V353.302C122.5 354.103 123.366 354.606 124.063 354.208Z" fill="#D1D3D4"/>
</g>
<path d="M122.812 354.046C122.622 353.861 122.5 353.602 122.5 353.301V336.162C122.5 335.861 122.622 335.602 122.812 335.417L132.128 344.731L122.812 354.046Z" fill="url(#paint3_linear_4558_41570)"/>
<g style="mix-blend-mode:screen">
<path d="M124.001 335.379L138.991 343.949C139.39 344.177 139.561 344.603 139.506 345.001C139.547 344.897 139.57 344.787 139.576 344.676C139.559 344.342 139.384 344.015 139.053 343.825L124.063 335.255C123.493 334.93 122.811 335.206 122.581 335.756C122.855 335.29 123.477 335.078 124.002 335.378L124.001 335.379Z" fill="#231F20"/>
</g>
<path d="M190.422 342.888H187.129V352.097H188.503V348.608H190.422C191.946 348.608 193.442 347.505 193.442 345.748C193.442 343.992 191.945 342.888 190.422 342.888ZM190.458 347.326H188.503V344.17H190.458C191.052 344.17 191.497 344.454 191.767 344.833C191.964 345.111 192.068 345.44 192.068 345.748C192.068 346.263 191.765 346.856 191.211 347.146C190.996 347.259 190.745 347.326 190.458 347.326Z" fill="black"/>
<path d="M198.951 346.004C197.955 346.004 196.925 346.443 196.499 347.414L197.719 347.923C197.979 347.414 198.465 347.248 198.974 347.248C199.685 347.248 200.407 347.675 200.419 348.433L200.421 348.537C200.172 348.396 199.637 348.172 198.985 348.172C197.671 348.172 196.332 348.895 196.332 350.246C196.332 351.478 197.409 352.272 198.619 352.272C199.543 352.272 200.052 351.857 200.372 351.371H200.419V352.082H201.746V348.552C201.746 346.918 200.526 346.005 198.951 346.005V346.004ZM198.785 351.051C198.334 351.051 197.706 350.827 197.706 350.269C197.706 349.559 198.489 349.286 199.164 349.286C199.769 349.286 200.047 349.414 200.414 349.591C200.307 350.444 199.578 351.051 198.785 351.051Z" fill="black"/>
<path d="M206.58 346.206L205.004 350.198H204.957L203.323 346.206H201.842L204.294 351.785L202.896 354.889H204.329L208.108 346.206H206.58Z" fill="black"/>
<path d="M195.575 342.889H194.201V352.097H195.575V342.889Z" fill="black"/>
<path d="M150.118 337.544C150.118 338.162 149.936 338.653 149.569 339.02C149.153 339.456 148.612 339.674 147.946 339.674C147.28 339.674 146.765 339.453 146.319 339.01C145.872 338.568 145.649 338.019 145.649 337.365C145.649 336.711 145.872 336.163 146.319 335.72C146.765 335.278 147.307 335.057 147.946 335.057C148.262 335.057 148.565 335.119 148.853 335.242C149.14 335.366 149.372 335.53 149.544 335.736L149.156 336.125C148.863 335.775 148.46 335.6 147.946 335.6C147.48 335.6 147.079 335.763 146.739 336.091C146.399 336.418 146.23 336.842 146.23 337.365C146.23 337.888 146.399 338.313 146.739 338.64C147.079 338.968 147.48 339.131 147.946 339.131C148.439 339.131 148.85 338.967 149.18 338.638C149.394 338.423 149.517 338.125 149.551 337.743H147.946V337.212H150.088C150.108 337.327 150.118 337.438 150.118 337.545V337.544Z" fill="black"/>
<path d="M159.339 339.579V335.159H159.906V339.579H159.339Z" fill="black"/>
<path d="M153.564 339.579H150.927V335.189H153.463V335.667H151.456V337.168H153.27V337.643H151.456V339.101H153.564V339.579H153.564Z" fill="black"/>
<path d="M157.101 335.667H155.798V339.579H155.27V335.667H153.971V335.189H157.102V335.667H157.101Z" fill="black"/>
<path d="M163.713 335.667H162.41V339.579H161.882V335.667H160.583V335.189H163.714V335.667H163.713Z" fill="black"/>
<path d="M167.758 339.564C167.083 339.564 166.542 339.361 166.136 338.956C165.73 338.551 165.526 338.024 165.526 337.374C165.526 336.677 165.733 336.12 166.147 335.705C166.561 335.289 167.124 335.081 167.838 335.081C168.495 335.081 169.025 335.283 169.427 335.686C169.828 336.09 170.029 336.617 170.029 337.269C170.029 337.977 169.823 338.536 169.412 338.948C169 339.359 168.449 339.565 167.758 339.565V339.564ZM167.798 335.542C167.298 335.542 166.892 335.706 166.579 336.035C166.268 336.363 166.111 336.795 166.111 337.33C166.111 337.864 166.263 338.295 166.568 338.619C166.873 338.945 167.269 339.107 167.758 339.107C168.28 339.107 168.692 338.952 168.994 338.642C169.295 338.331 169.445 337.897 169.445 337.338C169.445 336.78 169.299 336.323 169.007 336.01C168.714 335.698 168.312 335.542 167.798 335.542Z" fill="black"/>
<path d="M174.438 339.579H173.79L171.468 336.105C171.409 336.015 171.36 335.921 171.323 335.822H171.304C171.32 335.919 171.329 336.003 171.329 336.319V339.579H170.801V335.189H171.487L173.747 338.606C173.841 338.753 173.902 338.854 173.929 338.908H173.941C173.92 338.778 173.91 338.557 173.91 338.245V335.189H174.438V339.579Z" fill="black"/>
<path d="M153.773 344.007L152.881 344.899C152.874 344.906 152.862 344.906 152.854 344.899C152.742 344.786 151.89 343.985 150.606 343.985C149.133 343.981 147.097 344.866 147.097 347.604C147.097 348.017 147.335 350.298 149.863 350.847C150.262 350.933 150.675 350.948 151.078 350.882C151.946 350.738 153.376 350.219 153.634 348.36H150.507V347.048H154.913C154.942 347.269 155.232 349.311 154.024 350.69C152.817 352.068 151.483 352.225 150.449 352.225C149.415 352.225 146.854 351.66 145.866 348.854C145.336 347.24 145.819 345.421 146.883 344.29C147.948 343.158 149.179 342.69 150.642 342.675C152.092 342.661 153.286 343.457 153.773 343.98C153.78 343.987 153.779 343.998 153.773 344.005V344.007Z" fill="black"/>
<path d="M158.65 346.076C156.937 346.076 155.548 347.456 155.548 349.159C155.548 350.861 156.937 352.242 158.65 352.242C160.363 352.242 161.752 350.861 161.752 349.159C161.752 347.456 160.363 346.076 158.65 346.076ZM158.65 351.033C157.695 351.033 156.917 350.193 156.917 349.16C156.917 348.127 157.694 347.286 158.65 347.286C159.606 347.286 160.383 348.127 160.383 349.16C160.383 350.193 159.606 351.033 158.65 351.033Z" fill="black"/>
<path d="M165.507 346.076C163.794 346.076 162.405 347.456 162.405 349.159C162.405 350.861 163.794 352.242 165.507 352.242C167.221 352.242 168.61 350.861 168.61 349.159C168.61 347.456 167.221 346.076 165.507 346.076ZM165.507 351.033C164.552 351.033 163.774 350.193 163.774 349.16C163.774 348.127 164.551 347.286 165.507 347.286C166.464 347.286 167.241 348.127 167.241 349.16C167.241 350.193 166.464 351.033 165.507 351.033Z" fill="black"/>
<path d="M173.924 346.275V346.758C173.872 346.758 173.865 346.746 173.852 346.73C173.422 346.237 172.744 346.076 172.438 346.076C170.498 346.076 169.3 347.51 169.3 349.159C169.3 350.808 170.717 352.238 172.419 352.225C173.305 352.176 173.775 351.653 173.865 351.55C173.902 351.511 173.927 351.53 173.927 351.566C173.927 351.602 173.921 351.789 173.921 352.04C173.869 353.743 172.584 353.766 172.327 353.766C171.221 353.766 170.851 352.909 170.745 352.695C170.742 352.69 170.736 352.687 170.73 352.69C170.65 352.723 170.093 352.953 169.567 353.169C169.561 353.172 169.558 353.179 169.561 353.185C170.19 354.508 171.236 354.978 172.257 354.978C173.278 354.978 173.716 354.759 174.348 354.218C174.98 353.676 175.214 352.61 175.214 351.945V346.274C175.214 346.267 175.208 346.261 175.201 346.261H173.935C173.928 346.261 173.922 346.267 173.922 346.274L173.924 346.275ZM172.343 351.032C171.419 351.032 170.671 350.194 170.671 349.16C170.671 348.126 171.419 347.288 172.343 347.288C173.266 347.288 174.015 348.126 174.015 349.16C174.015 350.194 173.266 351.032 172.343 351.032Z" fill="black"/>
<path d="M177.56 343.023H176.26C176.254 343.023 176.248 343.029 176.248 343.036V352.028C176.248 352.035 176.254 352.04 176.26 352.04H177.56C177.567 352.04 177.573 352.035 177.573 352.028V343.036C177.573 343.029 177.567 343.023 177.56 343.023Z" fill="black"/>
<path d="M181.337 351.013C180.3 351.013 179.933 350.25 179.84 350.09C179.84 350.09 183.215 348.691 183.949 348.386C183.959 348.383 183.963 348.371 183.959 348.363C183.656 347.583 183.357 347.069 182.815 346.625C182.268 346.178 181.213 345.793 179.967 346.345C178.721 346.897 178.088 348.325 178.316 349.702C178.544 351.078 179.743 352.227 181.33 352.227C182.916 352.227 183.683 351.174 183.892 350.882C183.898 350.874 183.897 350.862 183.888 350.856C183.784 350.787 183.197 350.398 182.858 350.172C182.849 350.167 182.838 350.168 182.832 350.177C182.252 351.028 181.525 351.014 181.337 351.014V351.013ZM179.619 349.049C179.63 348.712 179.66 347.897 180.571 347.43C180.752 347.324 181.826 346.954 182.374 347.902C182.376 347.908 182.374 347.914 182.369 347.916C182.062 348.045 179.825 348.977 179.632 349.058C179.626 349.06 179.619 349.056 179.619 349.049Z" fill="black"/>
<path d="M103.753 330.61H11.6833C9.98831 330.61 8.61426 331.984 8.61426 333.679V355.776C8.61426 357.471 9.98831 358.845 11.6833 358.845H103.753C105.448 358.845 106.822 357.471 106.822 355.776V333.679C106.822 331.984 105.448 330.61 103.753 330.61Z" fill="white"/>
<path d="M103.753 330H11.6828C9.65719 330 8 331.657 8 333.683V355.78C8 357.806 9.65719 359.463 11.6828 359.463H103.753C105.779 359.463 107.436 357.806 107.436 355.78V333.683C107.436 331.657 105.779 330 103.753 330ZM106.822 355.78C106.822 357.472 105.445 358.849 103.753 358.849H11.6828C9.99073 358.849 8.61381 357.472 8.61381 355.78V333.683C8.61381 331.991 9.99073 330.614 11.6828 330.614H103.753C105.445 330.614 106.822 331.991 106.822 333.683V355.78Z" fill="black"/>
<path d="M25.4982 339.978C25.3053 340.02 25.1045 340.016 24.9132 339.969C24.8408 339.95 24.7683 339.931 24.7115 339.914C24.5596 339.868 23.1617 339.307 22.8099 339.259C22.458 339.21 21.8154 339.101 20.9239 339.374C20.0325 339.647 17.7885 340.702 17.4733 344.002C17.4367 344.402 17.3336 346.288 18.0496 348.277C18.7656 350.266 19.5357 351.304 20.6943 352.62C21.5072 353.493 22.52 353.528 23.2473 353.233C23.9755 352.938 24.6583 352.598 25.4511 352.626C25.6737 352.626 26.3207 352.647 26.8865 352.929C27.4523 353.212 28.2573 353.472 28.8397 353.354C29.4221 353.237 30.1433 352.929 31.0592 351.619C31.4538 351.055 32.2999 349.824 32.746 348.396C32.6334 348.35 31.157 347.729 30.5178 346.152C30.4366 345.974 29.2885 343.031 32.2361 341.005C32.0903 340.811 31.508 339.895 30.138 339.404C28.7672 338.912 27.6435 339.198 26.9642 339.453C26.4019 339.664 25.9505 339.881 25.5 339.978H25.4982Z" fill="black"/>
<path d="M25.0598 338.946C25.0476 338.403 24.9629 337.536 25.939 336.159C26.1818 335.807 27.2976 334.704 28.8256 334.601C28.8439 334.819 28.9548 335.551 28.4737 336.614C27.9926 337.678 27.2487 338.251 26.9335 338.421C26.6183 338.591 26.1529 338.945 25.0598 338.946Z" fill="black"/>
<path d="M40.1152 340.131V334.986H41.5908C43.3903 334.986 44.3036 335.832 44.3036 337.498C44.3036 338.285 44.0487 338.928 43.5466 339.409C43.0454 339.888 42.3696 340.131 41.5367 340.131H40.1152ZM41.5428 339.366C42.1496 339.366 42.6255 339.204 42.9572 338.884C43.2882 338.565 43.4558 338.104 43.4558 337.511C43.4558 336.327 42.8411 335.751 41.5768 335.751H40.9342V339.366H41.5428Z" fill="black"/>
<path d="M46.7155 340.213C46.1654 340.213 45.7192 340.035 45.3874 339.684C45.0583 339.335 44.8906 338.869 44.8906 338.3C44.8906 337.682 45.0644 337.19 45.4075 336.837C45.7515 336.484 46.2186 336.305 46.7975 336.305C47.3764 336.305 47.7938 336.48 48.1098 336.827C48.4224 337.17 48.5804 337.648 48.5804 338.246C48.5804 338.844 48.4102 339.313 48.074 339.671C47.7361 340.03 47.2786 340.214 46.7155 340.214V340.213ZM46.7565 337.022C46.4317 337.022 46.1829 337.128 45.996 337.346C45.8074 337.566 45.7114 337.88 45.7114 338.279C45.7114 338.678 45.8083 338.963 45.9986 339.178C46.1881 339.392 46.4361 339.496 46.7574 339.496C47.0787 339.496 47.3266 339.396 47.4978 339.189C47.6733 338.977 47.7615 338.667 47.7615 338.266C47.7615 337.864 47.6724 337.546 47.4969 337.332C47.3249 337.124 47.083 337.022 46.7565 337.022Z" fill="black"/>
<path d="M52.4056 340.131L51.7045 337.694L50.9449 340.131H50.2036L49.0703 336.387H49.9164L50.6175 338.932L51.3998 336.387H52.0966L52.7951 338.93L53.4805 336.387H54.2925L53.1705 340.131H52.4056Z" fill="black"/>
<path d="M57.49 340.131V338.012C57.49 337.125 57.0962 337.022 56.7993 337.022C56.554 337.022 56.3566 337.111 56.1969 337.296C56.0318 337.485 55.9524 337.72 55.9524 338.012V340.131H55.1465V336.387H55.9524V336.739C56.2213 336.451 56.5688 336.306 56.9914 336.306C57.414 336.306 57.7379 336.445 57.9641 336.721C58.1841 336.99 58.2958 337.376 58.2958 337.87V340.132H57.49V340.131Z" fill="black"/>
<path d="M60.4035 334.705H59.5977V340.13H60.4035V334.705Z" fill="black"/>
<path d="M63.1823 340.213C62.6322 340.213 62.186 340.035 61.8542 339.684C61.5251 339.335 61.3574 338.869 61.3574 338.3C61.3574 337.682 61.5312 337.19 61.8743 336.837C62.2183 336.484 62.6855 336.305 63.2643 336.305C63.8432 336.305 64.2606 336.48 64.5766 336.827C64.8892 337.17 65.0481 337.647 65.0481 338.246C65.0481 338.845 64.8779 339.313 64.5417 339.671C64.2038 340.03 63.7463 340.214 63.1831 340.214L63.1823 340.213ZM63.2233 337.022C62.8985 337.022 62.6488 337.128 62.4628 337.346C62.2742 337.566 62.1782 337.88 62.1782 338.279C62.1782 338.678 62.2751 338.963 62.4654 339.178C62.6549 339.392 62.9029 339.496 63.2242 339.496C63.5455 339.496 63.7934 339.396 63.9654 339.189C64.1401 338.977 64.2291 338.667 64.2291 338.266C64.2291 337.864 64.1401 337.546 63.9646 337.332C63.7926 337.124 63.5507 337.022 63.2242 337.022H63.2233Z" fill="black"/>
<path d="M66.9199 340.213C66.541 340.213 66.2372 340.109 66.018 339.903C65.7962 339.695 65.6836 339.418 65.6836 339.079C65.6836 338.583 65.9027 337.961 66.9444 337.816L67.8847 337.684C67.8507 337.093 67.5329 337.022 67.2893 337.022C66.8946 337.022 66.5471 337.153 66.2275 337.423L66.0259 337.594V336.688L66.0826 336.652C66.445 336.422 66.8667 336.305 67.3373 336.305C68.2244 336.305 68.6933 336.798 68.6933 337.732V340.131H67.8874V339.815C67.6376 340.079 67.3137 340.213 66.9199 340.213ZM67.1828 338.476C66.9435 338.509 66.7637 338.568 66.6484 338.648C66.5506 338.716 66.5026 338.844 66.5026 339.038C66.5026 339.173 66.5489 339.28 66.644 339.364C66.7436 339.452 66.8763 339.495 67.0492 339.495C67.2936 339.495 67.4892 339.412 67.6472 339.242C67.8079 339.069 67.8865 338.854 67.8865 338.586V338.378L67.1819 338.475L67.1828 338.476Z" fill="black"/>
<path d="M71.1429 340.213C70.6671 340.213 70.2811 340.04 69.9947 339.699C69.7136 339.365 69.5713 338.908 69.5713 338.341C69.5713 337.736 69.7285 337.241 70.0375 336.871C70.3519 336.495 70.7762 336.305 71.2966 336.305C71.6869 336.305 72.0012 336.422 72.2361 336.652V334.706H73.042V340.131H72.2361V339.77C71.9628 340.064 71.5969 340.213 71.1429 340.213ZM71.3682 337.022C71.0635 337.022 70.8312 337.129 70.6583 337.35C70.4811 337.577 70.3903 337.901 70.3903 338.313C70.3903 338.686 70.4759 338.981 70.6452 339.191C70.8103 339.396 71.0259 339.496 71.3062 339.496C71.5864 339.496 71.8012 339.399 71.9733 339.2C72.1496 338.996 72.2352 338.743 72.2352 338.426V337.91C72.2352 337.658 72.1549 337.451 71.989 337.277C71.8248 337.105 71.6214 337.022 71.3673 337.022H71.3682Z" fill="black"/>
<path d="M77.8014 340.213C77.2513 340.213 76.8052 340.035 76.4734 339.684C76.1442 339.335 75.9766 338.869 75.9766 338.3C75.9766 337.682 76.1503 337.19 76.4935 336.837C76.8375 336.484 77.3046 336.305 77.8835 336.305C78.4624 336.305 78.8797 336.48 79.1958 336.827C79.5084 337.17 79.6664 337.648 79.6664 338.246C79.6664 338.844 79.4961 339.313 79.16 339.671C78.8221 340.03 78.3646 340.214 77.8014 340.214V340.213ZM77.8424 337.022C77.5176 337.022 77.2679 337.128 77.082 337.346C76.8934 337.566 76.7973 337.88 76.7973 338.279C76.7973 338.678 76.8942 338.963 77.0846 339.178C77.274 339.392 77.522 339.496 77.8433 339.496C78.1646 339.496 78.4126 339.396 78.5846 339.189C78.7601 338.977 78.8483 338.667 78.8483 338.266C78.8483 337.864 78.7592 337.546 78.5837 337.332C78.4117 337.124 78.1699 337.022 77.8433 337.022H77.8424Z" fill="black"/>
<path d="M82.9665 340.131V338.012C82.9665 337.125 82.5727 337.022 82.2759 337.022C82.0305 337.022 81.8332 337.111 81.6734 337.296C81.5084 337.485 81.4289 337.72 81.4289 338.012V340.131H80.623V336.387H81.4289V336.739C81.6979 336.451 82.0454 336.306 82.4679 336.306C82.8905 336.306 83.2145 336.445 83.4406 336.721C83.6606 336.99 83.7724 337.376 83.7724 337.87V340.132H82.9665V340.131Z" fill="black"/>
<path d="M88.3971 340.206C87.9221 340.206 87.3555 340.007 87.3555 339.059V337.111H86.7539V336.387H87.3555V335.566L88.1614 335.306V336.387H89.0432V337.111H88.1614V338.959C88.1614 339.215 88.212 339.332 88.2539 339.385C88.3089 339.454 88.4102 339.489 88.5543 339.489C88.6695 339.489 88.7647 339.459 88.8459 339.397L89.0424 339.249V340.046L88.9786 340.081C88.8284 340.164 88.6329 340.206 88.3962 340.206H88.3971Z" fill="black"/>
<path d="M92.2584 340.131V337.992C92.2584 337.123 91.8646 337.022 91.5678 337.022C91.3294 337.022 91.133 337.112 90.9697 337.297C90.802 337.486 90.72 337.724 90.72 338.027V340.131H89.9141V334.706H90.72V336.742C90.9906 336.452 91.339 336.306 91.759 336.306C92.3544 336.306 93.0634 336.574 93.0634 337.853V340.132H92.2575L92.2584 340.131Z" fill="black"/>
<path d="M95.7133 340.213C95.185 340.213 94.7616 340.038 94.4568 339.695C94.1547 339.355 94.002 338.877 94.002 338.273C94.002 337.7 94.1687 337.224 94.4961 336.86C94.8279 336.492 95.2453 336.306 95.7368 336.306C96.2284 336.306 96.6196 336.47 96.8929 336.793C97.1618 337.111 97.298 337.552 97.298 338.105V338.522H94.8349C94.8602 338.818 94.9528 339.051 95.1091 339.217C95.2872 339.404 95.5282 339.496 95.8469 339.496C96.2109 339.496 96.5506 339.374 96.8571 339.133L97.0553 338.976V339.818L97.0046 339.855C96.6772 340.092 96.2424 340.213 95.7124 340.213H95.7133ZM96.4738 337.801C96.4554 337.568 96.3882 337.382 96.2747 337.249C96.1437 337.096 95.9647 337.022 95.7272 337.022C95.4898 337.022 95.3038 337.102 95.1422 337.268C95.006 337.407 94.9117 337.586 94.8602 337.8H96.4738V337.801Z" fill="black"/>
<path d="M46.0317 353.29L45.1009 350.616H41.6416L40.7659 353.29H39.2266L42.7252 343.381H44.0514L47.5623 353.29H46.0317ZM44.6382 349.242L43.3669 345.492L42.107 349.242H44.6373H44.6382Z" fill="black"/>
<path d="M48.8975 356.424V346.108H50.3564V346.946C50.9065 346.284 51.6434 345.949 52.5541 345.949C53.4648 345.949 54.2261 346.28 54.7535 346.932C55.2704 347.573 55.5332 348.436 55.5332 349.5C55.5332 350.678 55.2398 351.638 54.661 352.353C54.0725 353.08 53.2587 353.45 52.2424 353.45C51.4741 353.45 50.8428 353.177 50.3573 352.638V356.424H48.8983L48.8975 356.424ZM52.2817 347.236C51.6976 347.236 51.2427 347.431 50.8899 347.835C50.5311 348.245 50.3564 348.749 50.3564 349.373V350.325C50.3564 350.844 50.5197 351.272 50.8559 351.633C51.1885 351.99 51.6007 352.163 52.1149 352.163C52.72 352.163 53.1793 351.939 53.5206 351.479C53.8699 351.008 54.0463 350.335 54.0463 349.48C54.0463 348.768 53.883 348.207 53.5617 347.813C53.2448 347.424 52.8265 347.236 52.2808 347.236H52.2817Z" fill="black"/>
<path d="M57.0303 356.424V346.108H58.4901V346.946C59.0402 346.284 59.7771 345.949 60.6878 345.949C61.5985 345.949 62.3598 346.28 62.8872 346.932C63.4041 347.573 63.6669 348.436 63.6669 349.5C63.6669 350.678 63.3735 351.638 62.7946 352.353C62.2062 353.08 61.3924 353.45 60.3761 353.45C59.6077 353.45 58.9765 353.177 58.491 352.638V356.424H57.0311L57.0303 356.424ZM60.4145 347.236C59.8304 347.236 59.3755 347.431 59.0227 347.835C58.6639 348.245 58.4893 348.749 58.4893 349.373V350.325C58.4893 350.844 58.6525 351.272 58.9887 351.633C59.3213 351.99 59.7335 352.163 60.2477 352.163C60.8519 352.163 61.3121 351.939 61.6535 351.479C62.0027 351.008 62.1791 350.335 62.1791 349.48C62.1791 348.768 62.0158 348.207 61.6945 347.813C61.3776 347.424 60.9585 347.236 60.4136 347.236H60.4145Z" fill="black"/>
<path d="M69.3906 353.45C69.2343 353.45 69.0396 353.437 68.8117 353.412C68.5856 353.387 68.3516 353.35 68.1167 353.303C67.8792 353.255 67.6513 353.195 67.4391 353.124C67.2148 353.049 67.0375 352.967 66.8987 352.872L66.8184 352.817V350.994L67.124 351.263C67.2619 351.386 67.4313 351.497 67.6277 351.596C67.8286 351.697 68.0425 351.784 68.2651 351.854C68.4895 351.925 68.7174 351.98 68.9427 352.019C69.1662 352.057 69.3757 352.076 69.5635 352.076C70.207 352.076 70.6881 351.96 70.9928 351.73C71.2861 351.51 71.4285 351.198 71.4285 350.776C71.4285 350.554 71.3804 350.359 71.2844 350.198C71.1831 350.028 71.0408 349.869 70.8601 349.727C70.6697 349.576 70.441 349.431 70.1799 349.293C69.9083 349.149 69.6124 348.996 69.3015 348.839C68.9671 348.669 68.6493 348.495 68.3586 348.32C68.0591 348.14 67.7945 347.939 67.5727 347.722C67.3449 347.498 67.1632 347.242 67.0323 346.959C66.8996 346.672 66.8323 346.334 66.8323 345.954C66.8323 345.488 66.9371 345.075 67.144 344.725C67.3475 344.381 67.6199 344.094 67.9517 343.871C68.2782 343.652 68.6545 343.487 69.0702 343.38C69.4805 343.274 69.904 343.221 70.3301 343.221C71.3097 343.221 72.01 343.339 72.4718 343.582L72.5705 343.633V345.353L72.2815 345.153C71.7524 344.787 71.0574 344.601 70.2174 344.601C69.9878 344.601 69.7538 344.625 69.5233 344.673C69.3007 344.719 69.1007 344.796 68.9287 344.9C68.7628 345 68.6257 345.131 68.5218 345.289C68.4232 345.44 68.3725 345.63 68.3725 345.853C68.3725 346.077 68.4118 346.252 68.4886 346.402C68.5672 346.556 68.6868 346.7 68.8449 346.83C69.0125 346.968 69.2203 347.105 69.4639 347.236C69.7154 347.371 70.0105 347.523 70.3397 347.685C70.6854 347.856 71.0172 348.038 71.3254 348.226C71.6415 348.419 71.9235 348.635 72.1636 348.87C72.4081 349.11 72.6045 349.38 72.7486 349.673C72.8962 349.972 72.9704 350.317 72.9704 350.698C72.9704 351.199 72.8691 351.631 72.6709 351.983C72.4727 352.334 72.202 352.622 71.8659 352.842C71.5359 353.058 71.1517 353.215 70.7238 353.31C70.3039 353.403 69.8568 353.451 69.3932 353.451L69.3906 353.45Z" fill="black"/>
<path d="M76.8042 353.437C75.904 353.437 74.83 353.059 74.83 351.256V347.409H73.6592V346.108H74.83V344.495L76.289 344.023V346.108H78.0056V347.409H76.289V351.063C76.289 351.476 76.3536 351.766 76.482 351.927C76.5998 352.075 76.8112 352.15 77.1098 352.15C77.3455 352.15 77.542 352.088 77.7105 351.962L78.0056 351.738V353.148L77.9104 353.201C77.6267 353.357 77.2547 353.437 76.8033 353.437H76.8042Z" fill="black"/>
<path d="M82.3717 353.45C81.317 353.45 80.4605 353.109 79.8257 352.437C79.1945 351.768 78.874 350.874 78.874 349.779C78.874 348.591 79.2075 347.645 79.8641 346.969C80.5225 346.292 81.42 345.949 82.5307 345.949C83.6413 345.949 84.4419 346.285 85.0453 346.947C85.6442 347.604 85.9481 348.521 85.9481 349.672C85.9481 350.822 85.6215 351.723 84.9763 352.409C84.3284 353.099 83.4518 353.448 82.37 353.448L82.3717 353.45ZM82.4512 347.236C81.8007 347.236 81.3022 347.449 80.9276 347.886C80.5504 348.326 80.3601 348.95 80.3601 349.739C80.3601 350.528 80.553 351.097 80.9328 351.526C81.3118 351.955 81.8095 352.163 82.4512 352.163C83.093 352.163 83.5906 351.96 83.9364 351.544C84.2856 351.123 84.4629 350.506 84.4629 349.712C84.4629 348.917 84.2856 348.285 83.9364 347.859C83.5906 347.438 83.1052 347.234 82.4521 347.234L82.4512 347.236Z" fill="black"/>
<path d="M87.2012 353.29V346.109H88.6602V346.93C88.785 346.739 88.9308 346.574 89.0958 346.434C89.4477 346.138 89.8485 345.989 90.2859 345.989C90.5968 345.989 90.8325 346.024 91.008 346.096L91.1224 346.143V347.771L90.8264 347.544C90.6692 347.423 90.4291 347.362 90.113 347.362C89.707 347.362 89.3735 347.553 89.095 347.944C88.806 348.349 88.6602 348.917 88.6602 349.633V353.291H87.2012V353.29Z" fill="black"/>
<path d="M94.934 353.45C93.9211 353.45 93.1117 353.117 92.5276 352.46C91.9496 351.809 91.6562 350.889 91.6562 349.726C91.6562 348.624 91.9758 347.711 92.6053 347.011C93.2401 346.307 94.039 345.949 94.9811 345.949C95.9232 345.949 96.6689 346.261 97.191 346.879C97.7053 347.487 97.9663 348.335 97.9663 349.399V350.155H93.165C93.2087 350.773 93.3938 351.259 93.7177 351.601C94.0748 351.979 94.5576 352.163 95.1942 352.163C95.9154 352.163 96.5894 351.921 97.1962 351.443L97.494 351.209V352.707L97.418 352.762C96.7902 353.217 95.9546 353.449 94.9348 353.449L94.934 353.45ZM96.4733 348.863C96.4436 348.369 96.3074 347.977 96.0681 347.697C95.8027 347.387 95.4404 347.236 94.961 347.236C94.4817 347.236 94.108 347.398 93.7823 347.732C93.4951 348.027 93.3012 348.407 93.2043 348.863H96.4741H96.4733Z" fill="black"/>
<path d="M59.517 150H53.793V155.724H59.517V150Z" fill="#081A4E"/>
<path d="M65.2368 150H59.5127V155.724H65.2368V150Z" fill="#081A4E"/>
<path d="M70.9633 150H65.2393V155.724H70.9633V150Z" fill="#081A4E"/>
<path d="M82.4086 150H76.6846V155.724H82.4086V150Z" fill="#081A4E"/>
<path d="M99.5825 150H93.8584V155.724H99.5825V150Z" fill="#081A4E"/>
<path d="M105.31 150H99.5859V155.725H105.31V150Z" fill="#081A4E"/>
<path d="M116.76 150H111.036V155.725H116.76V150Z" fill="#081A4E"/>
<path d="M122.48 150H116.756V155.725H122.48V150Z" fill="#081A4E"/>
<path d="M128.205 150H122.48V155.725H128.205V150Z" fill="#081A4E"/>
<path d="M59.517 155.724H53.793V161.448H59.517V155.724Z" fill="#081A4E"/>
<path d="M65.2368 155.724H59.5127V161.448H65.2368V155.724Z" fill="#081A4E"/>
<path d="M70.9633 155.724H65.2393V161.448H70.9633V155.724Z" fill="#081A4E"/>
<path d="M82.4086 155.724H76.6846V161.448H82.4086V155.724Z" fill="#081A4E"/>
<path d="M93.8618 155.724H88.1377V161.448H93.8618V155.724Z" fill="#081A4E"/>
<path d="M99.5825 155.725H93.8584V161.449H99.5825V155.725Z" fill="#081A4E"/>
<path d="M111.033 155.724H105.309V161.449H111.033V155.724Z" fill="#081A4E"/>
<path d="M116.76 155.724H111.036V161.448H116.76V155.724Z" fill="#081A4E"/>
<path d="M128.205 155.724H122.48V161.448H128.205V155.724Z" fill="#081A4E"/>
<path d="M65.2368 161.449H59.5127V167.173H65.2368V161.449Z" fill="#081A4E"/>
<path d="M70.9633 161.448H65.2393V167.172H70.9633V161.448Z" fill="#081A4E"/>
<path d="M88.1372 161.448H82.4131V167.173H88.1372V161.448Z" fill="#081A4E"/>
<path d="M93.8618 161.449H88.1377V167.173H93.8618V161.449Z" fill="#081A4E"/>
<path d="M99.5825 161.448H93.8584V167.173H99.5825V161.448Z" fill="#081A4E"/>
<path d="M128.205 161.449H122.48V167.173H128.205V161.449Z" fill="#081A4E"/>
<path d="M59.517 167.172H53.793V172.897H59.517V167.172Z" fill="#081A4E"/>
<path d="M111.033 167.173H105.309V172.897H111.033V167.173Z" fill="#081A4E"/>
<path d="M122.48 167.173H116.756V172.897H122.48V167.173Z" fill="#081A4E"/>
<path d="M65.2368 172.897H59.5127V178.621H65.2368V172.897Z" fill="#081A4E"/>
<path d="M82.4086 172.897H76.6846V178.621H82.4086V172.897Z" fill="#081A4E"/>
<path d="M88.1372 172.897H82.4131V178.621H88.1372V172.897Z" fill="#081A4E"/>
<path d="M111.033 172.897H105.309V178.621H111.033V172.897Z" fill="#081A4E"/>
<path d="M122.48 172.897H116.756V178.621H122.48V172.897Z" fill="#081A4E"/>
<path d="M128.205 172.897H122.48V178.621H128.205V172.897Z" fill="#081A4E"/>
<path d="M65.2368 178.621H59.5127V184.345H65.2368V178.621Z" fill="#081A4E"/>
<path d="M76.684 178.621H70.96V184.345H76.684V178.621Z" fill="#081A4E"/>
<path d="M93.8618 178.621H88.1377V184.345H93.8618V178.621Z" fill="#081A4E"/>
<path d="M116.76 178.621H111.036V184.345H116.76V178.621Z" fill="#081A4E"/>
<path d="M122.48 178.621H116.756V184.345H122.48V178.621Z" fill="#081A4E"/>
<path d="M59.517 184.345H53.793V190.069H59.517V184.345Z" fill="#081A4E"/>
<path d="M70.9633 184.345H65.2393V190.069H70.9633V184.345Z" fill="#081A4E"/>
<path d="M82.4086 184.345H76.6846V190.069H82.4086V184.345Z" fill="#081A4E"/>
<path d="M93.8618 184.345H88.1377V190.069H93.8618V184.345Z" fill="#081A4E"/>
<path d="M105.31 184.345H99.5859V190.069H105.31V184.345Z" fill="#081A4E"/>
<path d="M116.76 184.345H111.036V190.069H116.76V184.345Z" fill="#081A4E"/>
<path d="M128.205 184.345H122.48V190.069H128.205V184.345Z" fill="#081A4E"/>
<path d="M59.517 190.069H53.793V195.793H59.517V190.069Z" fill="#081A4E"/>
<path d="M70.9633 190.069H65.2393V195.793H70.9633V190.069Z" fill="#081A4E"/>
<path d="M76.684 190.069H70.96V195.793H76.684V190.069Z" fill="#081A4E"/>
<path d="M88.1372 190.069H82.4131V195.793H88.1372V190.069Z" fill="#081A4E"/>
<path d="M93.8618 190.069H88.1377V195.793H93.8618V190.069Z" fill="#081A4E"/>
<path d="M105.31 190.069H99.5859V195.793H105.31V190.069Z" fill="#081A4E"/>
<path d="M111.033 190.069H105.309V195.793H111.033V190.069Z" fill="#081A4E"/>
<path d="M116.76 190.069H111.036V195.793H116.76V190.069Z" fill="#081A4E"/>
<path d="M122.48 190.069H116.756V195.793H122.48V190.069Z" fill="#081A4E"/>
<path d="M13.7241 195.793H8V201.517H13.7241V195.793Z" fill="#081A4E"/>
<path d="M25.1704 195.793H19.4463V201.517H25.1704V195.793Z" fill="#081A4E"/>
<path d="M30.895 195.793H25.1709V201.518H30.895V195.793Z" fill="#081A4E"/>
<path d="M42.3442 195.793H36.6201V201.517H42.3442V195.793Z" fill="#081A4E"/>
<path d="M48.0688 195.793H42.3447V201.518H48.0688V195.793Z" fill="#081A4E"/>
<path d="M53.7885 195.793H48.0645V201.517H53.7885V195.793Z" fill="#081A4E"/>
<path d="M70.9633 195.793H65.2393V201.517H70.9633V195.793Z" fill="#081A4E"/>
<path d="M76.684 195.793H70.96V201.517H76.684V195.793Z" fill="#081A4E"/>
<path d="M88.1372 195.793H82.4131V201.517H88.1372V195.793Z" fill="#081A4E"/>
<path d="M93.8618 195.793H88.1377V201.517H93.8618V195.793Z" fill="#081A4E"/>
<path d="M105.31 195.793H99.5859V201.517H105.31V195.793Z" fill="#081A4E"/>
<path d="M111.033 195.793H105.309V201.517H111.033V195.793Z" fill="#081A4E"/>
<path d="M139.654 195.793H133.93V201.517H139.654V195.793Z" fill="#081A4E"/>
<path d="M156.823 195.793H151.099V201.517H156.823V195.793Z" fill="#081A4E"/>
<path d="M168.272 195.793H162.548V201.518H168.272V195.793Z" fill="#081A4E"/>
<path d="M173.996 195.793H168.271V201.517H173.996V195.793Z" fill="#081A4E"/>
<path d="M25.1704 201.518H19.4463V207.242H25.1704V201.518Z" fill="#081A4E"/>
<path d="M30.895 201.517H25.1709V207.241H30.895V201.517Z" fill="#081A4E"/>
<path d="M42.3442 201.518H36.6201V207.242H42.3442V201.518Z" fill="#081A4E"/>
<path d="M59.517 201.517H53.793V207.241H59.517V201.517Z" fill="#081A4E"/>
<path d="M65.2368 201.517H59.5127V207.241H65.2368V201.517Z" fill="#081A4E"/>
<path d="M70.9633 201.517H65.2393V207.241H70.9633V201.517Z" fill="#081A4E"/>
<path d="M82.4086 201.517H76.6846V207.241H82.4086V201.517Z" fill="#081A4E"/>
<path d="M105.31 201.517H99.5859V207.241H105.31V201.517Z" fill="#081A4E"/>
<path d="M111.033 201.518H105.309V207.242H111.033V201.518Z" fill="#081A4E"/>
<path d="M116.76 201.517H111.036V207.241H116.76V201.517Z" fill="#081A4E"/>
<path d="M122.48 201.518H116.756V207.242H122.48V201.518Z" fill="#081A4E"/>
<path d="M128.205 201.517H122.48V207.241H128.205V201.517Z" fill="#081A4E"/>
<path d="M133.93 201.517H128.206V207.241H133.93V201.517Z" fill="#081A4E"/>
<path d="M139.654 201.518H133.93V207.242H139.654V201.518Z" fill="#081A4E"/>
<path d="M151.102 201.518H145.378V207.242H151.102V201.518Z" fill="#081A4E"/>
<path d="M173.996 201.517H168.271V207.241H173.996V201.517Z" fill="#081A4E"/>
<path d="M25.1704 207.242H19.4463V212.966H25.1704V207.242Z" fill="#081A4E"/>
<path d="M30.895 207.242H25.1709V212.966H30.895V207.242Z" fill="#081A4E"/>
<path d="M42.3442 207.242H36.6201V212.966H42.3442V207.242Z" fill="#081A4E"/>
<path d="M48.0688 207.242H42.3447V212.966H48.0688V207.242Z" fill="#081A4E"/>
<path d="M65.2368 207.242H59.5127V212.966H65.2368V207.242Z" fill="#081A4E"/>
<path d="M93.8618 207.242H88.1377V212.966H93.8618V207.242Z" fill="#081A4E"/>
<path d="M105.31 207.241H99.5859V212.966H105.31V207.241Z" fill="#081A4E"/>
<path d="M116.76 207.241H111.036V212.966H116.76V207.241Z" fill="#081A4E"/>
<path d="M133.93 207.241H128.206V212.966H133.93V207.241Z" fill="#081A4E"/>
<path d="M139.654 207.242H133.93V212.966H139.654V207.242Z" fill="#081A4E"/>
<path d="M151.102 207.242H145.378V212.966H151.102V207.242Z" fill="#081A4E"/>
<path d="M162.547 207.242H156.823V212.966H162.547V207.242Z" fill="#081A4E"/>
<path d="M168.272 207.242H162.548V212.966H168.272V207.242Z" fill="#081A4E"/>
<path d="M59.517 212.966H53.793V218.69H59.517V212.966Z" fill="#081A4E"/>
<path d="M88.1372 212.966H82.4131V218.69H88.1372V212.966Z" fill="#081A4E"/>
<path d="M93.8618 212.966H88.1377V218.69H93.8618V212.966Z" fill="#081A4E"/>
<path d="M99.5825 212.966H93.8584V218.69H99.5825V212.966Z" fill="#081A4E"/>
<path d="M116.76 212.966H111.036V218.69H116.76V212.966Z" fill="#081A4E"/>
<path d="M122.48 212.966H116.756V218.69H122.48V212.966Z" fill="#081A4E"/>
<path d="M128.205 212.966H122.48V218.69H128.205V212.966Z" fill="#081A4E"/>
<path d="M151.102 212.966H145.378V218.69H151.102V212.966Z" fill="#081A4E"/>
<path d="M173.996 212.966H168.271V218.69H173.996V212.966Z" fill="#081A4E"/>
<path d="M13.7241 218.69H8V224.414H13.7241V218.69Z" fill="#081A4E"/>
<path d="M30.895 218.69H25.1709V224.414H30.895V218.69Z" fill="#081A4E"/>
<path d="M42.3442 218.69H36.6201V224.414H42.3442V218.69Z" fill="#081A4E"/>
<path d="M48.0688 218.69H42.3447V224.414H48.0688V218.69Z" fill="#081A4E"/>
<path d="M65.2368 218.69H59.5127V224.414H65.2368V218.69Z" fill="#081A4E"/>
<path d="M99.5825 218.69H93.8584V224.414H99.5825V218.69Z" fill="#081A4E"/>
<path d="M111.033 218.69H105.309V224.414H111.033V218.69Z" fill="#081A4E"/>
<path d="M156.823 218.69H151.099V224.414H156.823V218.69Z" fill="#081A4E"/>
<path d="M162.547 218.69H156.823V224.414H162.547V218.69Z" fill="#081A4E"/>
<path d="M19.4477 224.414H13.7236V230.138H19.4477V224.414Z" fill="#081A4E"/>
<path d="M25.1704 224.414H19.4463V230.138H25.1704V224.414Z" fill="#081A4E"/>
<path d="M30.895 224.414H25.1709V230.138H30.895V224.414Z" fill="#081A4E"/>
<path d="M53.7885 224.414H48.0645V230.138H53.7885V224.414Z" fill="#081A4E"/>
<path d="M59.517 224.414H53.793V230.138H59.517V224.414Z" fill="#081A4E"/>
<path d="M88.1372 224.414H82.4131V230.138H88.1372V224.414Z" fill="#081A4E"/>
<path d="M99.5825 224.414H93.8584V230.138H99.5825V224.414Z" fill="#081A4E"/>
<path d="M105.31 224.414H99.5859V230.138H105.31V224.414Z" fill="#081A4E"/>
<path d="M111.033 224.414H105.309V230.138H111.033V224.414Z" fill="#081A4E"/>
<path d="M116.76 224.414H111.036V230.138H116.76V224.414Z" fill="#081A4E"/>
<path d="M122.48 224.414H116.756V230.138H122.48V224.414Z" fill="#081A4E"/>
<path d="M139.654 224.414H133.93V230.138H139.654V224.414Z" fill="#081A4E"/>
<path d="M162.547 224.414H156.823V230.138H162.547V224.414Z" fill="#081A4E"/>
<path d="M168.272 224.414H162.548V230.138H168.272V224.414Z" fill="#081A4E"/>
<path d="M173.996 224.414H168.271V230.138H173.996V224.414Z" fill="#081A4E"/>
<path d="M13.7241 230.138H8V235.862H13.7241V230.138Z" fill="#081A4E"/>
<path d="M19.4477 230.138H13.7236V235.862H19.4477V230.138Z" fill="#081A4E"/>
<path d="M25.1704 230.138H19.4463V235.862H25.1704V230.138Z" fill="#081A4E"/>
<path d="M36.6186 230.138H30.8945V235.862H36.6186V230.138Z" fill="#081A4E"/>
<path d="M42.3442 230.138H36.6201V235.862H42.3442V230.138Z" fill="#081A4E"/>
<path d="M48.0688 230.138H42.3447V235.862H48.0688V230.138Z" fill="#081A4E"/>
<path d="M53.7885 230.138H48.0645V235.862H53.7885V230.138Z" fill="#081A4E"/>
<path d="M59.517 230.138H53.793V235.862H59.517V230.138Z" fill="#081A4E"/>
<path d="M65.2368 230.138H59.5127V235.862H65.2368V230.138Z" fill="#081A4E"/>
<path d="M76.684 230.138H70.96V235.862H76.684V230.138Z" fill="#081A4E"/>
<path d="M93.8618 230.138H88.1377V235.862H93.8618V230.138Z" fill="#081A4E"/>
<path d="M122.48 230.138H116.756V235.862H122.48V230.138Z" fill="#081A4E"/>
<path d="M133.93 230.138H128.206V235.862H133.93V230.138Z" fill="#081A4E"/>
<path d="M139.654 230.138H133.93V235.862H139.654V230.138Z" fill="#081A4E"/>
<path d="M151.102 230.138H145.378V235.862H151.102V230.138Z" fill="#081A4E"/>
<path d="M162.547 230.138H156.823V235.862H162.547V230.138Z" fill="#081A4E"/>
<path d="M168.272 230.138H162.548V235.862H168.272V230.138Z" fill="#081A4E"/>
<path d="M173.996 230.138H168.271V235.862H173.996V230.138Z" fill="#081A4E"/>
<path d="M36.6186 235.862H30.8945V241.586H36.6186V235.862Z" fill="#081A4E"/>
<path d="M59.517 235.862H53.793V241.586H59.517V235.862Z" fill="#081A4E"/>
<path d="M70.9633 235.862H65.2393V241.586H70.9633V235.862Z" fill="#081A4E"/>
<path d="M88.1372 235.862H82.4131V241.587H88.1372V235.862Z" fill="#081A4E"/>
<path d="M99.5825 235.862H93.8584V241.587H99.5825V235.862Z" fill="#081A4E"/>
<path d="M122.48 235.862H116.756V241.586H122.48V235.862Z" fill="#081A4E"/>
<path d="M139.654 235.862H133.93V241.586H139.654V235.862Z" fill="#081A4E"/>
<path d="M145.374 235.862H139.65V241.587H145.374V235.862Z" fill="#081A4E"/>
<path d="M168.272 235.862H162.548V241.586H168.272V235.862Z" fill="#081A4E"/>
<path d="M36.6186 241.586H30.8945V247.31H36.6186V241.586Z" fill="#081A4E"/>
<path d="M48.0688 241.586H42.3447V247.31H48.0688V241.586Z" fill="#081A4E"/>
<path d="M59.517 241.587H53.793V247.311H59.517V241.587Z" fill="#081A4E"/>
<path d="M65.2368 241.587H59.5127V247.311H65.2368V241.587Z" fill="#081A4E"/>
<path d="M70.9633 241.587H65.2393V247.311H70.9633V241.587Z" fill="#081A4E"/>
<path d="M82.4086 241.587H76.6846V247.311H82.4086V241.587Z" fill="#081A4E"/>
<path d="M116.76 241.586H111.036V247.31H116.76V241.586Z" fill="#081A4E"/>
<path d="M128.205 241.586H122.48V247.31H128.205V241.586Z" fill="#081A4E"/>
<path d="M133.93 241.586H128.206V247.31H133.93V241.586Z" fill="#081A4E"/>
<path d="M145.374 241.586H139.65V247.31H145.374V241.586Z" fill="#081A4E"/>
<path d="M151.102 241.586H145.378V247.31H151.102V241.586Z" fill="#081A4E"/>
<path d="M156.823 241.586H151.099V247.31H156.823V241.586Z" fill="#081A4E"/>
<path d="M168.272 241.586H162.548V247.31H168.272V241.586Z" fill="#081A4E"/>
<path d="M19.4477 247.31H13.7236V253.035H19.4477V247.31Z" fill="#081A4E"/>
<path d="M30.895 247.31H25.1709V253.034H30.895V247.31Z" fill="#081A4E"/>
<path d="M36.6186 247.311H30.8945V253.035H36.6186V247.311Z" fill="#081A4E"/>
<path d="M59.517 247.311H53.793V253.035H59.517V247.311Z" fill="#081A4E"/>
<path d="M65.2368 247.311H59.5127V253.035H65.2368V247.311Z" fill="#081A4E"/>
<path d="M82.4086 247.311H76.6846V253.035H82.4086V247.311Z" fill="#081A4E"/>
<path d="M88.1372 247.311H82.4131V253.035H88.1372V247.311Z" fill="#081A4E"/>
<path d="M99.5825 247.311H93.8584V253.035H99.5825V247.311Z" fill="#081A4E"/>
<path d="M116.76 247.31H111.036V253.035H116.76V247.31Z" fill="#081A4E"/>
<path d="M128.205 247.31H122.48V253.035H128.205V247.31Z" fill="#081A4E"/>
<path d="M133.93 247.31H128.206V253.035H133.93V247.31Z" fill="#081A4E"/>
<path d="M145.374 247.31H139.65V253.035H145.374V247.31Z" fill="#081A4E"/>
<path d="M156.823 247.31H151.099V253.035H156.823V247.31Z" fill="#081A4E"/>
<path d="M162.547 247.31H156.823V253.034H162.547V247.31Z" fill="#081A4E"/>
<path d="M168.272 247.311H162.548V253.035H168.272V247.311Z" fill="#081A4E"/>
<path d="M13.7241 253.034H8V258.759H13.7241V253.034Z" fill="#081A4E"/>
<path d="M25.1704 253.035H19.4463V258.759H25.1704V253.035Z" fill="#081A4E"/>
<path d="M48.0688 253.035H42.3447V258.759H48.0688V253.035Z" fill="#081A4E"/>
<path d="M65.2368 253.035H59.5127V258.759H65.2368V253.035Z" fill="#081A4E"/>
<path d="M70.9633 253.035H65.2393V258.759H70.9633V253.035Z" fill="#081A4E"/>
<path d="M76.684 253.035H70.96V258.759H76.684V253.035Z" fill="#081A4E"/>
<path d="M82.4086 253.035H76.6846V258.759H82.4086V253.035Z" fill="#081A4E"/>
<path d="M99.5825 253.035H93.8584V258.759H99.5825V253.035Z" fill="#081A4E"/>
<path d="M111.033 253.035H105.309V258.759H111.033V253.035Z" fill="#081A4E"/>
<path d="M116.76 253.035H111.036V258.759H116.76V253.035Z" fill="#081A4E"/>
<path d="M128.205 253.035H122.48V258.759H128.205V253.035Z" fill="#081A4E"/>
<path d="M145.374 253.035H139.65V258.759H145.374V253.035Z" fill="#081A4E"/>
<path d="M151.102 253.035H145.378V258.759H151.102V253.035Z" fill="#081A4E"/>
<path d="M162.547 253.034H156.823V258.759H162.547V253.034Z" fill="#081A4E"/>
<path d="M25.1704 258.759H19.4463V264.483H25.1704V258.759Z" fill="#081A4E"/>
<path d="M36.6186 258.759H30.8945V264.483H36.6186V258.759Z" fill="#081A4E"/>
<path d="M53.7885 258.759H48.0645V264.483H53.7885V258.759Z" fill="#081A4E"/>
<path d="M70.9633 258.759H65.2393V264.483H70.9633V258.759Z" fill="#081A4E"/>
<path d="M82.4086 258.759H76.6846V264.483H82.4086V258.759Z" fill="#081A4E"/>
<path d="M111.033 258.759H105.309V264.483H111.033V258.759Z" fill="#081A4E"/>
<path d="M128.205 258.759H122.48V264.483H128.205V258.759Z" fill="#081A4E"/>
<path d="M133.93 258.759H128.206V264.483H133.93V258.759Z" fill="#081A4E"/>
<path d="M145.374 258.759H139.65V264.483H145.374V258.759Z" fill="#081A4E"/>
<path d="M151.102 258.759H145.378V264.483H151.102V258.759Z" fill="#081A4E"/>
<path d="M162.547 258.759H156.823V264.483H162.547V258.759Z" fill="#081A4E"/>
<path d="M19.4477 264.483H13.7236V270.207H19.4477V264.483Z" fill="#081A4E"/>
<path d="M42.3442 264.483H36.6201V270.207H42.3442V264.483Z" fill="#081A4E"/>
<path d="M48.0688 264.483H42.3447V270.207H48.0688V264.483Z" fill="#081A4E"/>
<path d="M65.2368 264.483H59.5127V270.207H65.2368V264.483Z" fill="#081A4E"/>
<path d="M70.9633 264.483H65.2393V270.207H70.9633V264.483Z" fill="#081A4E"/>
<path d="M82.4086 264.483H76.6846V270.207H82.4086V264.483Z" fill="#081A4E"/>
<path d="M88.1372 264.483H82.4131V270.207H88.1372V264.483Z" fill="#081A4E"/>
<path d="M111.033 264.483H105.309V270.207H111.033V264.483Z" fill="#081A4E"/>
<path d="M116.76 264.483H111.036V270.207H116.76V264.483Z" fill="#081A4E"/>
<path d="M122.48 264.483H116.756V270.207H122.48V264.483Z" fill="#081A4E"/>
<path d="M128.205 264.483H122.48V270.207H128.205V264.483Z" fill="#081A4E"/>
<path d="M133.93 264.483H128.206V270.207H133.93V264.483Z" fill="#081A4E"/>
<path d="M139.654 264.483H133.93V270.207H139.654V264.483Z" fill="#081A4E"/>
<path d="M145.374 264.483H139.65V270.207H145.374V264.483Z" fill="#081A4E"/>
<path d="M151.102 264.483H145.378V270.207H151.102V264.483Z" fill="#081A4E"/>
<path d="M156.823 264.483H151.099V270.207H156.823V264.483Z" fill="#081A4E"/>
<path d="M162.547 264.483H156.823V270.207H162.547V264.483Z" fill="#081A4E"/>
<path d="M59.517 270.207H53.793V275.931H59.517V270.207Z" fill="#081A4E"/>
<path d="M88.1372 270.207H82.4131V275.931H88.1372V270.207Z" fill="#081A4E"/>
<path d="M93.8618 270.207H88.1377V275.931H93.8618V270.207Z" fill="#081A4E"/>
<path d="M105.31 270.207H99.5859V275.931H105.31V270.207Z" fill="#081A4E"/>
<path d="M111.033 270.207H105.309V275.931H111.033V270.207Z" fill="#081A4E"/>
<path d="M116.76 270.207H111.036V275.931H116.76V270.207Z" fill="#081A4E"/>
<path d="M128.205 270.207H122.48V275.931H128.205V270.207Z" fill="#081A4E"/>
<path d="M151.102 270.207H145.378V275.931H151.102V270.207Z" fill="#081A4E"/>
<path d="M156.823 270.207H151.099V275.931H156.823V270.207Z" fill="#081A4E"/>
<path d="M162.547 270.207H156.823V275.931H162.547V270.207Z" fill="#081A4E"/>
<path d="M168.272 270.207H162.548V275.931H168.272V270.207Z" fill="#081A4E"/>
<path d="M173.996 270.207H168.271V275.931H173.996V270.207Z" fill="#081A4E"/>
<path d="M59.517 275.932H53.793V281.656H59.517V275.932Z" fill="#081A4E"/>
<path d="M70.9633 275.932H65.2393V281.656H70.9633V275.932Z" fill="#081A4E"/>
<path d="M76.684 275.931H70.96V281.656H76.684V275.931Z" fill="#081A4E"/>
<path d="M88.1372 275.931H82.4131V281.655H88.1372V275.931Z" fill="#081A4E"/>
<path d="M105.31 275.931H99.5859V281.655H105.31V275.931Z" fill="#081A4E"/>
<path d="M111.033 275.931H105.309V281.655H111.033V275.931Z" fill="#081A4E"/>
<path d="M122.48 275.931H116.756V281.655H122.48V275.931Z" fill="#081A4E"/>
<path d="M128.205 275.931H122.48V281.655H128.205V275.931Z" fill="#081A4E"/>
<path d="M139.654 275.931H133.93V281.655H139.654V275.931Z" fill="#081A4E"/>
<path d="M151.102 275.931H145.378V281.655H151.102V275.931Z" fill="#081A4E"/>
<path d="M156.823 275.931H151.099V281.655H156.823V275.931Z" fill="#081A4E"/>
<path d="M168.272 275.931H162.548V281.655H168.272V275.931Z" fill="#081A4E"/>
<path d="M59.517 281.655H53.793V287.379H59.517V281.655Z" fill="#081A4E"/>
<path d="M76.684 281.656H70.96V287.38H76.684V281.656Z" fill="#081A4E"/>
<path d="M82.4086 281.655H76.6846V287.38H82.4086V281.655Z" fill="#081A4E"/>
<path d="M128.205 281.655H122.48V287.379H128.205V281.655Z" fill="#081A4E"/>
<path d="M151.102 281.655H145.378V287.379H151.102V281.655Z" fill="#081A4E"/>
<path d="M156.823 281.655H151.099V287.379H156.823V281.655Z" fill="#081A4E"/>
<path d="M168.272 281.655H162.548V287.379H168.272V281.655Z" fill="#081A4E"/>
<path d="M65.2368 287.38H59.5127V293.104H65.2368V287.38Z" fill="#081A4E"/>
<path d="M70.9633 287.38H65.2393V293.104H70.9633V287.38Z" fill="#081A4E"/>
<path d="M82.4086 287.38H76.6846V293.104H82.4086V287.38Z" fill="#081A4E"/>
<path d="M93.8618 287.379H88.1377V293.103H93.8618V287.379Z" fill="#081A4E"/>
<path d="M99.5825 287.379H93.8584V293.104H99.5825V287.379Z" fill="#081A4E"/>
<path d="M111.033 287.379H105.309V293.103H111.033V287.379Z" fill="#081A4E"/>
<path d="M128.205 287.379H122.48V293.103H128.205V287.379Z" fill="#081A4E"/>
<path d="M133.93 287.379H128.206V293.103H133.93V287.379Z" fill="#081A4E"/>
<path d="M139.654 287.379H133.93V293.103H139.654V287.379Z" fill="#081A4E"/>
<path d="M145.374 287.379H139.65V293.103H145.374V287.379Z" fill="#081A4E"/>
<path d="M151.102 287.379H145.378V293.104H151.102V287.379Z" fill="#081A4E"/>
<path d="M162.547 287.379H156.823V293.104H162.547V287.379Z" fill="#081A4E"/>
<path d="M168.272 287.379H162.548V293.104H168.272V287.379Z" fill="#081A4E"/>
<path d="M59.517 293.104H53.793V298.828H59.517V293.104Z" fill="#081A4E"/>
<path d="M82.4086 293.104H76.6846V298.828H82.4086V293.104Z" fill="#081A4E"/>
<path d="M88.1372 293.104H82.4131V298.828H88.1372V293.104Z" fill="#081A4E"/>
<path d="M93.8618 293.104H88.1377V298.828H93.8618V293.104Z" fill="#081A4E"/>
<path d="M99.5825 293.103H93.8584V298.828H99.5825V293.103Z" fill="#081A4E"/>
<path d="M105.31 293.103H99.5859V298.828H105.31V293.103Z" fill="#081A4E"/>
<path d="M128.205 293.104H122.48V298.828H128.205V293.104Z" fill="#081A4E"/>
<path d="M133.93 293.104H128.206V298.828H133.93V293.104Z" fill="#081A4E"/>
<path d="M145.374 293.104H139.65V298.828H145.374V293.104Z" fill="#081A4E"/>
<path d="M151.102 293.103H145.378V298.828H151.102V293.103Z" fill="#081A4E"/>
<path d="M156.823 293.104H151.099V298.828H156.823V293.104Z" fill="#081A4E"/>
<path d="M173.996 293.104H168.271V298.828H173.996V293.104Z" fill="#081A4E"/>
<path d="M59.517 298.828H53.793V304.552H59.517V298.828Z" fill="#081A4E"/>
<path d="M65.2368 298.827H59.5127V304.552H65.2368V298.827Z" fill="#081A4E"/>
<path d="M70.9633 298.828H65.2393V304.552H70.9633V298.828Z" fill="#081A4E"/>
<path d="M76.684 298.827H70.96V304.552H76.684V298.827Z" fill="#081A4E"/>
<path d="M82.4086 298.827H76.6846V304.552H82.4086V298.827Z" fill="#081A4E"/>
<path d="M93.8618 298.828H88.1377V304.552H93.8618V298.828Z" fill="#081A4E"/>
<path d="M111.033 298.828H105.309V304.552H111.033V298.828Z" fill="#081A4E"/>
<path d="M116.76 298.828H111.036V304.552H116.76V298.828Z" fill="#081A4E"/>
<path d="M122.48 298.828H116.756V304.552H122.48V298.828Z" fill="#081A4E"/>
<path d="M128.205 298.828H122.48V304.552H128.205V298.828Z" fill="#081A4E"/>
<path d="M133.93 298.828H128.206V304.552H133.93V298.828Z" fill="#081A4E"/>
<path d="M145.374 298.828H139.65V304.552H145.374V298.828Z" fill="#081A4E"/>
<path d="M162.547 298.827H156.823V304.552H162.547V298.827Z" fill="#081A4E"/>
<path d="M173.996 298.828H168.271V304.552H173.996V298.828Z" fill="#081A4E"/>
<path d="M65.2368 304.552H59.5127V310.276H65.2368V304.552Z" fill="#081A4E"/>
<path d="M70.9633 304.552H65.2393V310.276H70.9633V304.552Z" fill="#081A4E"/>
<path d="M76.684 304.552H70.96V310.276H76.684V304.552Z" fill="#081A4E"/>
<path d="M82.4086 304.552H76.6846V310.276H82.4086V304.552Z" fill="#081A4E"/>
<path d="M99.5825 304.552H93.8584V310.276H99.5825V304.552Z" fill="#081A4E"/>
<path d="M105.31 304.552H99.5859V310.276H105.31V304.552Z" fill="#081A4E"/>
<path d="M128.205 304.552H122.48V310.276H128.205V304.552Z" fill="#081A4E"/>
<path d="M151.102 304.552H145.378V310.276H151.102V304.552Z" fill="#081A4E"/>
<path d="M156.823 304.552H151.099V310.276H156.823V304.552Z" fill="#081A4E"/>
<path d="M168.272 304.552H162.548V310.276H168.272V304.552Z" fill="#081A4E"/>
<path d="M59.517 310.275H53.793V315.999H59.517V310.275Z" fill="#081A4E"/>
<path d="M65.2368 310.276H59.5127V316H65.2368V310.276Z" fill="#081A4E"/>
<path d="M82.4086 310.276H76.6846V316H82.4086V310.276Z" fill="#081A4E"/>
<path d="M93.8618 310.276H88.1377V316H93.8618V310.276Z" fill="#081A4E"/>
<path d="M99.5825 310.276H93.8584V316H99.5825V310.276Z" fill="#081A4E"/>
<path d="M116.76 310.276H111.036V316H116.76V310.276Z" fill="#081A4E"/>
<path d="M122.48 310.276H116.756V316H122.48V310.276Z" fill="#081A4E"/>
<path d="M128.205 310.276H122.48V316H128.205V310.276Z" fill="#081A4E"/>
<path d="M151.102 310.276H145.378V316H151.102V310.276Z" fill="#081A4E"/>
<path d="M168.272 310.276H162.548V316H168.272V310.276Z" fill="#081A4E"/>
<path d="M42.0582 150H14.0103H8V156.011V184.059V190.069H14.0103H42.0582H48.0685V184.059V156.011V150H42.0582ZM42.0582 184.059H14.0103V156.011H42.0582V184.059Z" fill="#081A4E"/>
<path d="M167.989 150H139.941H133.931V156.011V184.059V190.069H139.941H167.989H173.999V184.059V156.011V150H167.989ZM167.989 184.059H139.941V156.011H167.989V184.059Z" fill="#081A4E"/>
<path d="M42.0582 275.931H14.0103H8V281.942V309.99V316H14.0103H42.0582H48.0685V309.99V281.942V275.931H42.0582ZM42.0582 309.99H14.0103V281.942H42.0582V309.99Z" fill="#081A4E"/>
<path d="M36.6185 161.448H19.4463V178.621H36.6185V161.448Z" fill="#081A4E"/>
<path d="M162.55 161.448H145.378V178.621H162.55V161.448Z" fill="#081A4E"/>
<path d="M36.6185 287.379H19.4463V304.552H36.6185V287.379Z" fill="#081A4E"/>
<path d="M7.84349 16.8086L22.0793 9.63943V44H13.7324V21.1612L7.84349 23.824V16.8086ZM34.2404 27.255C34.2404 32.3758 35.5206 36.5748 38.7979 36.5748C42.024 36.5748 43.1506 32.3758 43.1506 27.255C43.1506 22.083 42.024 17.8327 38.7979 17.8327C35.5206 17.8327 34.2404 22.083 34.2404 27.255ZM26.0471 27.255C26.0471 17.5767 28.966 9.89547 38.7979 9.89547C48.5787 9.89547 51.3439 17.5767 51.3439 27.255C51.3439 36.8821 48.5787 44.4609 38.7979 44.4609C28.966 44.4609 26.0471 36.8821 26.0471 27.255ZM67.1568 44L84.0042 10.4076H88.8689L71.9703 44H67.1568ZM61.9847 16.6037C61.9847 12.7631 64.9036 9.74185 68.7954 9.74185C72.636 9.74185 75.6573 12.7631 75.6573 16.6037C75.6573 20.4955 72.636 23.4144 68.7954 23.4144C64.9036 23.4144 61.9847 20.4955 61.9847 16.6037ZM66.3886 16.6037C66.3886 17.9863 67.4128 19.0105 68.7954 19.0105C70.178 19.0105 71.2534 17.9863 71.2534 16.6037C71.2534 15.2211 70.178 14.1457 68.7954 14.1457C67.4128 14.1457 66.3886 15.2211 66.3886 16.6037ZM80.522 37.6502C80.522 33.8096 83.4409 30.7883 87.3327 30.7883C91.1733 30.7883 94.1946 33.8096 94.1946 37.6502C94.1946 41.542 91.1733 44.4609 87.3327 44.4609C83.4409 44.4609 80.522 41.542 80.522 37.6502ZM84.9259 37.6502C84.9259 39.0328 85.9501 40.057 87.3327 40.057C88.7153 40.057 89.7907 39.0328 89.7907 37.6502C89.7907 36.2676 88.7153 35.1922 87.3327 35.1922C85.9501 35.1922 84.9259 36.2676 84.9259 37.6502ZM18.4948 89H9.94302V53.7177H24.5373C32.8842 53.7177 36.6224 59.6066 36.6224 65.4955C36.6224 70.4627 33.9084 75.4299 28.1731 76.8125L36.776 89H26.8417L19.2629 77.2222H18.4948V89ZM24.1276 61.1941H18.4948V69.8482H24.1276C26.9441 69.8482 27.9682 67.5951 27.9682 65.4955C27.9682 63.4472 26.9441 61.1941 24.1276 61.1941ZM61.4379 89L58.4678 80.9091H47.3557L44.3856 89H35.2194L48.2262 53.7177H57.5461L70.5017 89H61.4379ZM52.8349 61.911L49.66 73.5352H56.2659L52.8349 61.911ZM96.0541 63.1912C96.0541 65.1883 94.9787 69.0801 91.0869 70.1555C95.9004 70.8212 97.8976 75.1738 97.8976 78.5536C97.8976 83.6744 94.8763 89 86.2733 89H70.8085V53.7177H85.2492C91.8038 53.7177 96.0541 57.5071 96.0541 63.1912ZM79.4115 67.339H84.0202C85.8125 67.339 86.9903 66.2124 86.9903 64.4202C86.9903 62.5767 86.1709 61.1941 84.1226 61.1941H79.4115V67.339ZM84.8395 74.3545H79.4115V81.5236H84.8907C87.5535 81.5236 88.8337 79.6801 88.8337 77.8879C88.8337 76.2492 87.7072 74.3545 84.8395 74.3545ZM122.403 89L119.433 80.9091H108.321L105.351 89H96.1849L109.192 53.7177H118.512L131.467 89H122.403ZM113.8 61.911L110.626 73.5352H117.231L113.8 61.911ZM135.578 61.1941H126.463V53.7177H153.245V61.1941H144.13V89H135.578V61.1941ZM162.06 61.1941H152.945V53.7177H179.727V61.1941H170.612V89H162.06V61.1941Z" fill="#FFA900"/>
<path d="M17.6207 113L16.5069 109.966H12.3399L11.2261 113H7.78877L12.6663 99.7691H16.1613L21.0196 113H17.6207ZM14.3946 102.842L13.204 107.201H15.6812L14.3946 102.842ZM26.0168 113.173C23.2707 113.173 20.7936 111.233 20.7936 108.18V99.7691H24.0197V108.18C24.0197 109.351 25.0182 110.158 26.0168 110.158C27.0153 110.158 28.0139 109.351 28.0139 108.18V99.7691H31.24V108.18C31.24 111.233 28.7628 113.173 26.0168 113.173ZM36.1298 113H32.8845V99.7691H41.3915V102.573H36.1298V105.108H40.2969V107.873H36.1298V113ZM48.3773 102.63V110.139H50.3936C52.2563 110.139 53.1973 108.353 53.1973 106.413C53.1973 104.474 52.2563 102.63 50.3936 102.63H48.3773ZM45.1512 113V99.7691H50.3936C54.215 99.7691 56.4042 102.65 56.4042 106.413C56.4042 110.177 54.215 113 50.3936 113H45.1512ZM66.2952 113H57.5386V99.7691H66.1224V102.573H60.7455V105.108H65.4695V107.854H60.7455V110.196H66.2952V113ZM67.5445 113V99.7691H70.7514V113H67.5445ZM79.4175 99.7691H82.6244V113H79.8207L75.7689 105.78V113H72.562V99.7691H75.4616L79.4175 106.893V99.7691ZM93.1809 113H84.4243V99.7691H93.0081V102.573H87.6312V105.108H92.3552V107.854H87.6312V110.196H93.1809V113ZM106.61 113H97.8537V99.7691H106.437V102.573H101.061V105.108H105.785V107.854H101.061V110.196H106.61V113ZM111.066 113H107.86V99.7691H113.332C116.462 99.7691 117.864 101.977 117.864 104.186C117.864 106.049 116.847 107.911 114.696 108.43L117.922 113H114.196L111.354 108.583H111.066V113ZM113.179 102.573H111.066V105.818H113.179C114.235 105.818 114.619 104.973 114.619 104.186C114.619 103.418 114.235 102.573 113.179 102.573ZM118.317 109.063H121.563C121.62 109.774 122.062 110.35 123.195 110.35C124.04 110.35 124.827 110.004 124.827 109.159C124.827 108.948 124.827 108.526 123.502 108.065L121.947 107.546C118.99 106.74 118.49 104.877 118.49 103.648C118.49 101.248 120.449 99.5963 123.118 99.5963C125.73 99.5963 127.669 101.113 127.669 103.725H124.462C124.462 103.014 124.059 102.496 123.08 102.496C122.216 102.496 121.678 102.918 121.678 103.552C121.678 103.821 121.755 104.282 122.907 104.627L124.424 105.108C127.9 106.183 128.092 108.199 128.092 109.14C128.092 112.059 125.423 113.173 123.195 113.173C120.219 113.173 118.317 111.579 118.317 109.063ZM131.473 102.573H128.055V99.7691H138.098V102.573H134.68V113H131.473V102.573ZM147.702 113H138.946V99.7691H147.53V102.573H142.153V105.108H146.877V107.854H142.153V110.196H147.702V113ZM160.517 113L159.404 109.966H155.236L154.123 113H150.685L155.563 99.7691H159.058L163.916 113H160.517ZM157.291 102.842L156.101 107.201H158.578L157.291 102.842ZM167.238 113H164.031V99.7691H169.504C172.634 99.7691 174.036 101.977 174.036 104.186C174.036 106.413 172.634 108.583 169.504 108.583H167.238V113ZM169.351 102.573H167.238V105.818H169.351C170.407 105.818 170.791 104.973 170.791 104.186C170.791 103.418 170.407 102.573 169.351 102.573ZM177.957 113H174.75V99.7691H180.223C183.353 99.7691 184.754 101.977 184.754 104.186C184.754 106.413 183.353 108.583 180.223 108.583H177.957V113ZM180.069 102.573H177.957V105.818H180.069C181.125 105.818 181.509 104.973 181.509 104.186C181.509 103.418 181.125 102.573 180.069 102.573ZM191.92 109.639H185.103V107.047H191.92V109.639ZM18.9457 121.322C18.9457 122.071 18.5424 123.53 17.083 123.933C18.8881 124.183 19.637 125.815 19.637 127.083C19.637 129.003 18.504 131 15.2779 131H9.47863V117.769H14.8939C17.3519 117.769 18.9457 119.19 18.9457 121.322ZM12.7047 122.877H14.433C15.1051 122.877 15.5468 122.455 15.5468 121.783C15.5468 121.091 15.2395 120.573 14.4714 120.573H12.7047V122.877ZM14.7403 125.508H12.7047V128.196H14.7595C15.758 128.196 16.2381 127.505 16.2381 126.833C16.2381 126.218 15.8156 125.508 14.7403 125.508ZM29.4412 131H20.6846V117.769H29.2684V120.573H23.8915V123.108H28.6155V125.854H23.8915V128.196H29.4412V131ZM29.8487 127.063H33.094C33.1516 127.774 33.5932 128.35 34.7262 128.35C35.5712 128.35 36.3585 128.004 36.3585 127.159C36.3585 126.948 36.3585 126.526 35.0335 126.065L33.478 125.546C30.5208 124.74 30.0215 122.877 30.0215 121.648C30.0215 119.248 31.9802 117.596 34.6494 117.596C37.261 117.596 39.2005 119.113 39.2005 121.725H35.9936C35.9936 121.014 35.5904 120.496 34.611 120.496C33.7469 120.496 33.2092 120.918 33.2092 121.552C33.2092 121.821 33.286 122.282 34.4382 122.627L35.9552 123.108C39.431 124.183 39.623 126.199 39.623 127.14C39.623 130.059 36.9538 131.173 34.7262 131.173C31.7498 131.173 29.8487 129.579 29.8487 127.063ZM43.0042 120.573H39.5861V117.769H49.6293V120.573H46.2111V131H43.0042V120.573ZM59.2336 131H50.477V117.769H59.0608V120.573H53.6839V123.108H58.4079V125.854H53.6839V128.196H59.2336V131ZM68.4905 131H60.4829V117.769H63.7282V128.196H68.4905V131ZM77.2774 131H69.2697V117.769H72.515V128.196H77.2774V131ZM82.9574 131.173C80.2114 131.173 77.7342 129.233 77.7342 126.18V117.769H80.9603V126.18C80.9603 127.351 81.9589 128.158 82.9574 128.158C83.956 128.158 84.9545 127.351 84.9545 126.18V117.769H88.1806V126.18C88.1806 129.233 85.7034 131.173 82.9574 131.173ZM96.6807 117.769H99.8876V131H97.0839L93.0321 123.78V131H89.8252V117.769H92.7248L96.6807 124.893V117.769ZM112.921 119.939L110.54 121.955C109.849 121.11 108.889 120.573 107.756 120.573C105.759 120.573 104.184 122.282 104.184 124.394C104.184 126.468 105.759 128.254 107.756 128.254C109.311 128.254 110.502 127.716 110.79 126.487H107.084V123.914H114.285C114.285 128.984 111.539 131.173 107.756 131.173C103.934 131.173 100.939 128.12 100.939 124.394C100.939 120.65 103.934 117.596 107.756 117.596C109.926 117.596 111.769 118.499 112.921 119.939Z" fill="#081A4E"/>
</g>
<defs>
<linearGradient id="paint0_linear_4558_41570" x1="115.189" y1="344.732" x2="115.277" y2="344.732" gradientUnits="userSpaceOnUse">
<stop stop-color="#FFBC00"/>
<stop offset="1" stop-color="#FFDC00"/>
</linearGradient>
<linearGradient id="paint1_linear_4558_41570" x1="133.358" y1="343.7" x2="124.92" y2="333.644" gradientUnits="userSpaceOnUse">
<stop stop-color="#00F076"/>
<stop offset="1" stop-color="#0EDA74"/>
</linearGradient>
<linearGradient id="paint2_linear_4558_41570" x1="115.191" y1="345.763" x2="124.921" y2="355.819" gradientUnits="userSpaceOnUse">
<stop stop-color="#FF3A44"/>
<stop offset="1" stop-color="#E12653"/>
</linearGradient>
<linearGradient id="paint3_linear_4558_41570" x1="119.184" y1="346.424" x2="130.465" y2="341.164" gradientUnits="userSpaceOnUse">
<stop stop-color="#00DFFF"/>
<stop offset="1" stop-color="#00B4FF"/>
</linearGradient>
<clipPath id="clip0_4558_41570">
<rect width="316" height="365" fill="white"/>
</clipPath>
</defs>
</svg>
